<?xml version="1.0" encoding="UTF-8" standalone="no"?>
<!-- Created with Inkscape (http://www.inkscape.org/) -->

<svg
   version="1.1"
   id="svg1"
   width="1365.3333"
   height="1365.3333"
   viewBox="0 0 1365.3333 1365.3333"
   sodipodi:docname="Cool_Coin_Black_on_White.svg"
   inkscape:version="1.3 (0e150ed6c4, 2023-07-21)"
   xmlns:inkscape="http://www.inkscape.org/namespaces/inkscape"
   xmlns:sodipodi="http://sodipodi.sourceforge.net/DTD/sodipodi-0.dtd"
   xmlns="http://www.w3.org/2000/svg"
   xmlns:svg="http://www.w3.org/2000/svg">
  <defs
     id="defs1" />
  <sodipodi:namedview
     id="namedview1"
     pagecolor="#ffffff"
     bordercolor="#000000"
     borderopacity="0.25"
     inkscape:showpageshadow="2"
     inkscape:pageopacity="0.0"
     inkscape:pagecheckerboard="0"
     inkscape:deskcolor="#d1d1d1"
     showgrid="false"
     inkscape:zoom="0.6514283"
     inkscape:cx="686.1845"
     inkscape:cy="723.79416"
     inkscape:window-width="1920"
     inkscape:window-height="1009"
     inkscape:window-x="1912"
     inkscape:window-y="1432"
     inkscape:window-maximized="1"
     inkscape:current-layer="g1"
     showguides="false" />
  <g
     inkscape:groupmode="layer"
     inkscape:label="Image"
     id="g1">
    <g
       id="g115"
       style="stroke-width:1.5;stroke-dasharray:none;fill:#000000;fill-opacity:1">
      <path
         id="path3"
         style="fill:#000000;stroke-width:1.5;stroke-dasharray:none;fill-opacity:1"
         d="m 704.91204,1342.8748 c 71.14787,-3.558 131.94684,-15.5884 198.62487,-39.3023 79.96397,-28.4391 151.96539,-71.5744 219.69029,-131.6142 111.6998,-99.0246 187.6893,-235.88825 211.5647,-381.0463 7.7797,-47.29908 10.6835,-96.34831 8.2821,-139.89738 -5.1183,-92.81997 -27.1413,-176.31814 -68.2048,-258.59152 -33.7435,-67.60735 -72.2398,-120.80141 -126.534,-174.8444 C 1093.4164,162.91402 1037.3724,123.19076 967.57869,89.460701 913.89574,63.516696 866.32507,47.865584 806.07234,36.323891 721.06663,20.040646 627.4594,20.254994 545.51311,36.920537 432.09357,59.986844 324.0848,113.69052 238.04073,189.80069 220.65584,205.17847 184.02393,242.53165 171.07936,258.08051 80.030448,367.44733 26.703019,496.78049 16.279231,633.51187 c -1.72926,22.68312 -1.75675,69.9426 -0.05433,93.40014 3.903316,53.78354 13.250761,103.7122 28.052471,149.84011 43.219946,134.69018 122.766218,246.59978 236.049328,332.08568 112.357,84.7871 249.98202,132.7507 387.91868,135.1935 5.5,0.097 22,-0.423 36.66666,-1.1565 z M 638.91205,1326.106 C 506.21953,1316.7235 380.29645,1267.8111 276.56457,1185.3592 209.53246,1132.0782 148.99284,1060.0373 108.67907,985.57864 35.887464,851.1342 13.507394,698.34368 45.01105,550.91202 79.267487,390.59781 176.18105,246.15691 310.91207,154.61059 383.31719,105.41315 464.1847,71.058897 545.57872,54.919165 c 97.1221,-19.258474 197.87768,-16.679819 295.33332,7.558518 93.17908,23.174708 183.92376,69.869347 257.38346,132.442287 18.2005,15.5031 56.1586,53.40007 72.1083,71.99206 56.2938,65.61962 101.0551,144.80845 126.2384,223.33332 22.2849,69.48721 33.6219,158.53072 29.0289,227.99999 -2.4899,37.66092 -9.2839,82.50297 -17.5749,115.99999 -24.405,98.59964 -69.9487,186.67217 -137.0266,264.98277 l -9.9785,11.6496 -4.0895,-3.3151 -89.0696,-64.9945 c -0.87,-0.6349 2.0121,-4.4894 7.6516,-10.4511 16.6822,-17.6353 36.6715,-43.39976 51.6236,-66.53834 32.98,-51.03676 57.1967,-105.91361 71.4895,-161.99999 12.8199,-50.30705 16.6139,-78.70136 16.5685,-123.99999 -0.109,-108.73667 -34.0039,-215.09001 -96.4541,-302.64805 -19.4919,-27.32856 -33.3439,-43.60188 -59.1625,-69.5041 C 992.91551,240.4773 919.79411,197.51026 827.5787,171.05939 762.69428,152.44809 674.32257,145.68246 607.95835,154.24554 c -64.37829,8.30683 -122.19312,27.81359 -185.71296,62.65966 -80.14555,43.96671 -142.5829,100.77662 -191.97616,174.67349 -68.85742,103.01705 -99.26464,231.43224 -83.36689,352.07339 13.17201,99.95673 54.91609,194.19915 121.1786,273.57572 14.06432,16.8478 36.9561,41.0347 39.64105,41.8839 0.81212,0.2568 13.28433,27.4669 27.71601,60.4669 14.43169,33 27.31963,61.0858 28.63987,62.4128 2.25861,2.2702 2.92433,2.2912 11.26707,0.3564 24.61735,-5.7091 48.99977,-19.0582 101.32192,-55.4726 l 10.42147,-7.253 18.24519,6.1756 c 21.15562,7.1607 50.01414,19.9858 96.91186,43.0687 35.10383,17.2781 43.44969,21.7617 76.41322,41.0514 11.22727,6.57 20.67283,11.6858 20.99013,11.3685 1.60686,-1.6069 -45.18055,-33.6113 -70.73668,-48.3867 -45.13824,-26.0968 -112.48397,-57.1313 -137.52945,-63.3769 l -6.8628,-1.7113 -13.80387,10.042 c -22.52832,16.3887 -48.23355,32.8496 -63.06904,40.3876 -13.8794,7.0522 -34.16584,14.6383 -36.79849,13.7608 -0.76568,-0.2553 -3.3894,-5.2549 -5.83049,-11.1104 -4.24256,-10.1766 -23.47601,-54.5503 -39.00096,-89.9795 -4.0168,-9.1667 -16.52842,-34.3667 -27.8036,-56 -24.24729,-46.52251 -28.4576,-55.5452 -29.41614,-63.03867 -0.79238,-6.19457 -2.57974,-3.37584 24.63847,-38.85568 9.96749,-12.99296 10.54328,-14.11868 11.36982,-22.22918 1.4076,-13.8122 3.41038,-19.4675 9.2395,-26.08973 l 5.44554,-6.18645 1.57994,3.86529 c 0.99485,2.4339 1.13462,4.69737 0.37743,6.1122 -4.08548,7.63378 1.2203,24.27688 13.52455,42.42364 29.39701,43.35581 75.00413,89.90078 129.27293,131.93128 49.19134,38.0981 102.68807,73.8035 235.66665,157.2916 23.65,14.8482 43,27.2902 43,27.6488 0,0.3586 -1.44732,3.1588 -3.21627,6.2228 -7.84623,13.59 -12.13574,41.1669 -11.26956,72.451 l 0.48583,17.5469 -4.66666,0.7984 c -5.66602,0.9693 -75.06324,2.028 -85.33333,1.3018 z m -48.70332,-134.3346 c -4.39377,-3.0193 -26.9095,-12.7599 -37.4425,-16.1983 -21.80407,-7.1175 -47.14346,-9.309 -69.77418,-6.0343 -13.45501,1.9469 -13.87194,3.2696 -0.69839,2.2156 25.80698,-2.0648 62.31825,4.2382 93.95172,16.219 15.37017,5.8213 17.91522,6.5136 13.96335,3.798 z M 201.13628,1064.1067 c 2.96653,-1.8334 4.14597,-3.3346 3.40453,-4.3333 -0.62394,-0.8405 -3.11799,-4.1058 -5.54232,-7.2563 -2.42434,-3.1504 -4.18556,-5.9225 -3.91382,-6.16 3.48729,-3.0487 35.42526,-26.4762 40.15835,-29.4574 3.48202,-2.1933 6.31715,-4.2877 6.30028,-4.6544 -0.0169,-0.3667 -2.12261,-3.518 -4.67942,-7.003 l -4.64875,-6.33636 -7.13647,5.66966 c -7.36783,5.8535 -30.82284,22.8683 -36.99946,26.8403 l -3.49954,2.2504 -4.30299,-6.7056 -4.30299,-6.7056 -3.95359,2.3284 c -8.87522,5.2271 -8.98301,4.8086 6.2639,24.3145 7.67878,9.8237 13.96142,18.3457 13.96142,18.9376 0,1.9536 4.27886,1.1215 8.89087,-1.7289 z m -34.41608,-46.2988 c 2.6722,-2.0739 15.35854,-10.5626 28.19187,-18.86366 12.83334,-8.3012 23.55539,-15.2764 23.8268,-15.5006 1.09442,-0.9037 -1.28531,-6.7491 -4.13169,-10.14866 l -3.02844,-3.617 -12.66667,7.90166 c -6.96666,4.3459 -13.12411,7.9236 -13.68322,7.9503 -0.9313,0.045 -10.31677,-13.69355 -10.31677,-15.10136 0,-0.33633 5.39999,-4.01879 11.99999,-8.18325 6.6,-4.16446 12,-8.14201 12,-8.83899 0,-2.36088 -5.37885,-11.82768 -6.72026,-11.82768 -1.24504,0 -6.07759,2.77642 -17.27973,9.92762 -2.56667,1.6385 -13.06667,8.26113 -23.33334,14.71695 -10.26666,6.45581 -18.8584,11.89351 -19.09275,12.08381 -0.68841,0.559 5.33795,13.9383 6.27815,13.9383 0.47136,0 5.64748,-2.9868 11.50248,-6.6373 5.855,-3.6506 11.26868,-6.6506 12.03041,-6.6667 0.76172,-0.016 3.38505,3.2708 5.82963,7.3043 5.26406,8.6857 5.23904,8.7373 -7.79429,16.06866 -9.69231,5.4521 -10.87417,7.0645 -7.33238,10.004 1.14836,0.953 2.96376,3.4265 4.03424,5.4966 2.42968,4.6984 3.62418,4.6976 9.68597,-0.01 z m 0.84067,-77.69232 c 23.25451,-5.52518 22.66398,-5.1357 19.05368,-12.56679 -3.21309,-6.61349 -4.19392,-6.8985 -13.79585,-4.00874 -3.58445,1.07876 -6.96614,1.51243 -7.51485,0.96372 -0.54872,-0.54872 -2.19137,-4.46721 -3.65033,-8.70777 l -2.65266,-7.71009 4.83513,-4.25362 c 2.65933,-2.3395 5.69025,-4.8828 6.7354,-5.65179 1.61318,-1.18694 1.44017,-2.34516 -1.14521,-7.66666 -1.67502,-3.44768 -3.37592,-6.26315 -3.77979,-6.25659 -2.11621,0.0344 -19.2824,14.85484 -36.77086,31.74625 l -19.76631,19.0915 1.76647,4.9085 c 0.97156,2.69967 2.58003,6.1575 3.57439,7.68407 l 1.80793,2.77558 16.9937,-3.11675 c 9.34653,-1.7142 24.78566,-4.96808 34.30916,-7.23082 z m -29.44015,-14.53692 c 3.87696,-3.66666 7.62992,-6.66666 8.33991,-6.66666 1.19915,0 6.37425,9.33332 5.50859,9.93479 -0.56811,0.39473 -17.77177,3.39854 -19.46439,3.39854 -0.78822,0 1.73893,-3 5.61589,-6.66667 z m -23.35563,-29.87388 c 8.51418,-3.23064 18.06186,-6.56226 21.21707,-7.4036 3.15522,-0.84134 10.56514,-3.3735 16.46649,-5.62701 10.61388,-4.05305 10.72101,-4.14091 9.922,-8.13599 -1.4482,-7.24097 -2.59934,-7.69462 -12.53399,-4.93944 -4.90852,1.36128 -13.87458,4.22762 -19.92458,6.36965 -6.05,2.14203 -10.98882,3.53063 -10.97515,3.08577 0.0137,-0.44486 6.61366,-8.75573 14.66666,-18.46861 14.72791,-17.76361 16.6903,-21.7055 13.39658,-26.91001 -1.02444,-1.61873 -2.36626,-1.64599 -8.97959,-0.18241 -7.19219,1.5917 -32.00153,10.33849 -50.085724,17.65826 -8.186021,3.31338 -9.123822,5.14764 -6.355074,12.43 1.574258,4.14061 1.003046,4.24684 22.199318,-4.12837 8.17686,-3.2309 15.52173,-5.87435 16.32194,-5.87435 1.42547,0 -10.30078,14.83941 -22.85563,28.92347 -3.48333,3.90762 -6.33333,7.43785 -6.33333,7.84496 0,2.27161 6.16366,11.23156 7.72633,11.23156 0.35549,0 7.6125,-2.64325 16.12668,-5.87388 z m -3.85301,-66.09927 c 8.43333,-2.3019 19.12544,-5.41255 23.76023,-6.91257 l 8.42691,-2.7273 -0.89747,-5.52682 c -0.4936,-3.03975 -1.32965,-5.99076 -1.85787,-6.55779 -0.52823,-0.56704 -6.25358,0.22615 -12.72299,1.76263 -11.20306,2.66072 -18.04214,2.65837 -18.04214,-0.006 0,-0.67305 5.25,-4.6473 11.66666,-8.83166 16.36338,-10.67068 16.21398,-10.51118 14.97831,-15.98997 -0.57441,-2.54687 -2.06015,-6.18092 -3.30163,-8.07566 l -2.25724,-3.44498 -4.20972,3.95127 c -2.31534,2.1732 -7.80972,6.57303 -12.20972,9.7774 -4.4,3.20436 -10.32083,7.75826 -13.1574,10.11977 l -5.1574,4.29365 -8.842595,-3.36395 c -4.86343,-1.85018 -12.597772,-4.79342 -17.187425,-6.54054 l -8.344824,-3.17659 0.811866,3.61124 c 3.206649,14.2634 2.101037,13.01548 15.568381,17.57226 6.77017,2.29073 14.109401,4.96474 16.309397,5.94224 4.57894,2.0345 5.06162,1.75575 -11.602335,6.70045 -6.381287,1.89352 -11.924101,3.96339 -12.317365,4.5997 -0.393264,0.63632 -0.06937,3.17586 0.719769,5.64343 0.789137,2.46757 1.639497,5.17493 1.889688,6.01635 0.318094,1.06979 3.791279,0.60047 11.549237,-1.56061 6.101888,-1.69975 17.994346,-4.97384 26.427676,-7.27574 z M 86.873176,771.59879 c 4.961521,-2.5657 8.308414,-7.4528 11.884394,-17.35345 4.2263,-11.70116 5.62733,-13.9842 9.11946,-14.86067 7.50044,-1.88249 10.92169,9.09075 6.29027,20.17528 -1.14296,2.73549 -1.80612,5.2456 -1.4737,5.57802 0.33242,0.33242 3.88898,0.9434 7.90347,1.35773 l 7.29908,0.75333 2.35763,-6.17338 c 2.8718,-7.51971 1.97536,-18.57711 -2.20781,-27.23276 -4.36221,-9.02614 -13.04991,-13.19526 -22.88957,-10.98443 -9.96837,2.23974 -13.899315,6.84582 -19.710728,23.09598 -4.236976,11.84765 -11.048258,14.70524 -14.601877,6.12604 -1.571318,-3.7935 -1.011597,-7.64052 2.247214,-15.44535 0.80571,-1.92967 -8.249407,-6.00348 -12.101045,-5.44414 -3.264766,0.47411 -5.827834,8.09708 -5.975413,17.77183 -0.129198,8.46976 4.21927,17.47904 10.428042,21.60509 5.378201,3.5741 15.564959,4.06411 21.430583,1.03088 z m 37.372234,-93.35345 v -8.66666 H 110.136 96.02659 l 0.44274,-9.39469 c 0.49414,-10.48514 -0.24426,-11.27407 -9.706086,-10.37022 l -4.51783,0.43157 -0.391746,9.66667 c -0.430585,10.62504 -0.200072,10.42101 -9.952398,8.80912 l -5.010811,-0.82821 0.344145,-10.75558 0.344144,-10.75559 -5.823794,-1.17774 c -3.203086,-0.64776 -6.30734,-0.67845 -6.89834,-0.0682 -0.591001,0.61024 -1.270294,9.80953 -1.509539,20.44287 l -0.434992,19.33333 33.333331,0.70184 c 18.333336,0.38601 34.383336,0.83601 35.666666,1 2.01349,0.25729 2.33333,-0.88984 2.33333,-8.36851 z m -11.66658,-44.09271 c 7.61239,-2.5938 17.52083,-12.76412 19.54785,-20.06451 6.34182,-22.84031 -6.44459,-39.85179 -33.48003,-44.54297 -20.753413,-3.60113 -37.129599,6.36755 -41.124182,25.03353 -3.683276,17.2113 6.04788,33.1403 24.05628,39.37791 7.904149,2.73777 23.255582,2.83485 31.000082,0.19604 z M 89.739084,620.19604 C 77.914711,617.75806 71.737988,610.41241 72.646316,599.8685 73.674221,587.93654 82.6276,582.88921 97.92823,585.61622 c 9.74628,1.73707 16.17803,5.63362 18.97776,11.4973 2.66388,5.57916 2.5352,7.82732 -0.78625,13.73705 -4.7944,8.53048 -14.19009,11.85895 -26.380656,9.34547 z m 51.337026,-63.77085 c 0.67886,-3.39428 0.33445,-3.63253 -8.56507,-5.9251 -10.84838,-2.79461 -14.38186,-4.95802 -13.18635,-8.07346 1.09851,-2.86268 4.82336,-4.2323 16.22225,-5.96489 5.77984,-0.87851 9.90808,-2.24331 10.90357,-3.60473 1.683,-2.30163 3.80623,-12.3781 2.81673,-13.36761 -0.31695,-0.31694 -7.12652,0.61438 -15.13238,2.0696 -17.18985,3.12459 -16.55611,3.07768 -16.55611,1.22551 0,-3.19007 -6.03131,-9.65059 -11.20143,-11.99858 -10.8121,-4.91026 -25.307806,-1.85456 -31.331297,6.60465 -2.947557,4.13946 -9.386981,23.84329 -9.439298,28.88307 -0.02479,2.38826 2.817131,3.41341 24.972022,9.00798 13.750003,3.47216 29.800003,7.75709 35.666663,9.52205 l 10.66667,3.20902 1.72837,-4.02552 c 0.9506,-2.21403 2.04665,-5.61693 2.43566,-7.56199 z M 93.98232,539.76552 c -5.278032,-1.56943 -9.953748,-3.22922 -10.390478,-3.68843 -0.436731,-0.45921 0.226885,-2.97586 1.474701,-5.59255 2.837268,-5.94982 7.814527,-8.27871 13.264597,-6.20659 6.78425,2.57936 8.58094,5.12839 8.58094,12.17405 0,7.41592 0.46554,7.29662 -12.92976,3.31352 z m 1134.66068,21.7253 c 4.3901,-1.21909 4.9394,-1.79507 4.126,-4.3259 -0.5161,-1.60576 -1.9839,-6.96448 -3.2618,-11.90826 l -2.3234,-8.98869 6.8641,-2.05921 c 3.7753,-1.13256 15.8641,-4.51392 26.8641,-7.51411 11,-3.0002 20.2116,-5.64023 20.4702,-5.86674 0.2586,-0.22651 0.042,-3.52271 -0.4806,-7.32491 l -0.9508,-6.91307 -5.5194,0.76 c -4.8605,0.66927 -61.5491,16.40525 -63.6752,17.67536 -0.4523,0.27023 0.8855,7.55529 2.973,16.18903 2.0876,8.63373 4.1191,17.0477 4.5146,18.6977 0.8013,3.34323 2.8987,3.66165 10.3992,1.5788 z m 4.6444,-56.59282 c 21.7888,-5.13705 33.53,-17.1462 33.5954,-34.36214 0.094,-24.65457 -22.0088,-38.99335 -46.9036,-30.42831 -13.4701,4.63442 -24.3984,13.68725 -28.5673,23.66468 -5.4382,13.01555 1.8017,31.96041 14.8335,38.81522 8.5811,4.51369 15.2723,5.08542 27.042,2.31055 z m -17.964,-15.44265 c -8.5519,-2.50369 -12.4289,-13.77998 -7.3734,-21.44548 7.2338,-10.96844 27.8723,-18.0475 36.0063,-12.35024 7.4122,5.19173 9.28,17.61887 3.6532,24.30599 -6.0514,7.19162 -23.0598,12.19085 -32.2861,9.48973 z M 162.16479,478.80395 c 7.04587,-6.18636 13.77134,-16.03064 15.58524,-22.81261 1.48025,-5.53449 1.34257,-6.60928 -1.60962,-12.56573 -2.48923,-5.02235 -4.75462,-7.34591 -9.895,-10.14911 -11.24842,-6.13408 -18.08985,-4.55228 -32.65721,7.55066 -4.02813,3.34667 -8.33527,6.08486 -9.57143,6.08486 -2.44852,0 -6.43802,-3.405 -6.43802,-5.49478 0,-2.66143 4.43226,-9.98321 8.81683,-14.56477 l 4.52302,-4.72622 -5.33195,-5.20651 -5.33194,-5.2065 -4.79977,4.59939 c -11.88814,11.39184 -15.49298,24.69691 -9.52093,35.1407 3.9715,6.94527 8.76298,10.2784 15.93813,11.08714 7.00171,0.78919 11.09951,-1.04514 23.40556,-10.47722 8.80332,-6.74737 10.75127,-7.4078 15.05536,-5.10431 6.27756,3.35964 -0.67811,17.11272 -10.76871,21.29238 -2.19208,0.90799 -3.98561,1.97146 -3.98561,2.36327 0,1.02391 6.92876,10.11349 8.59619,11.27701 2.24254,1.56485 3.04348,1.25533 7.98986,-3.08765 z M 1209.8997,435.29288 c 21.9155,-10.3125 31.5291,-30.22198 22.8897,-47.40383 -1.192,-2.3707 -4.6172,-6.85038 -7.6115,-9.95484 -16.8449,-17.46464 -50.0897,-9.99953 -61.7679,13.87 -6.5864,13.46198 -4.2853,27.92833 6.4741,40.70276 7.6152,9.04128 24.2595,10.20006 40.0156,2.78591 z m -25.5258,-11.33473 c -5.7941,-3.09664 -8.6481,-8.42258 -8.7247,-16.28153 -0.082,-8.39407 2.3791,-12.54717 11.0826,-18.70315 4.3874,-3.10319 7.3443,-4.05163 13.941,-4.47168 7.5121,-0.47833 8.8018,-0.17186 12.5502,2.98219 8.9396,7.52219 9.0068,19.04708 0.1551,26.62375 -10.231,8.7574 -22.9603,13.08052 -29.0042,9.85042 z m -992.85017,1.48305 c 1.95679,-3.74229 3.36967,-6.96933 3.13974,-7.17119 -0.22994,-0.20187 -5.96806,-3.80051 -12.7514,-7.99699 -6.78333,-4.19647 -12.3209,-8.01944 -12.30572,-8.49547 0.0152,-0.47604 2.28935,-4.89138 5.05368,-9.81188 l 5.02607,-8.94635 10.18895,5.80722 c 5.60392,3.19396 11.56327,6.76982 13.24299,7.94635 1.67973,1.17652 3.51044,2.13914 4.06825,2.13914 0.55781,0 2.47102,-2.87491 4.25158,-6.38869 l 3.2374,-6.38868 -4.21493,-2.81658 c -14.77782,-9.87511 -57.64583,-35.07272 -59.66828,-35.07272 -1.42246,0 -7.88234,8.97006 -7.85769,10.91104 0.0123,0.9656 5.41226,4.98484 12,8.93166 6.58774,3.94682 11.97771,7.43718 11.97771,7.75636 0,1.73622 -10.20886,17.68704 -11.33334,17.70776 -0.73333,0.0135 -6.43268,-3.00902 -12.66522,-6.71673 l -11.33188,-6.74131 -2.89441,3.62993 c -4.43148,5.5576 -6.63597,10.2172 -5.10848,10.7977 0.73333,0.27869 15.13333,8.82834 31.99999,18.99923 16.86667,10.17088 31.05379,18.54468 31.52693,18.60844 0.47314,0.0637 2.46127,-2.94596 4.41806,-6.68824 z m 965.35887,-44.64944 c 3.3729,-2.49585 1.9279,-5.00298 -6.1044,-10.59146 -8.017,-5.57774 -11.3865,-12.5143 -9.3619,-19.27207 1.8134,-6.05234 10.051,-13.89885 18.5288,-17.64899 13.2972,-5.88196 24.7401,1.07365 27.6971,16.83572 l 0.9588,5.11079 5.9328,-0.81318 c 8.2941,-1.13684 8.8076,-1.67892 7.8953,-8.33477 -1.7163,-12.52195 -11.0134,-24.9181 -21.9327,-29.24376 -19.3406,-7.66169 -49.0165,9.49607 -55.0263,31.81462 -2.0959,7.78364 0.5001,18.01632 6.2853,24.77503 5.1838,6.05611 8.4268,8.17652 14.49,9.47412 4.7136,1.00877 7.054,0.5454 10.6372,-2.10605 z M 232.52128,362.14891 c 4.05832,-2.84712 7.07573,-6.66375 10.36857,-13.11491 8.33826,-16.33586 5.80522,-28.66038 -8.62415,-41.96091 -11.31594,-10.43066 -27.28852,-15.40985 -39.16984,-12.21054 -12.50309,3.36673 -22.81307,18.00599 -22.83743,32.42714 -0.0207,12.26253 6.28353,22.33467 19.76814,31.5831 13.40186,9.19168 30.13316,10.54528 40.49471,3.27612 z m -28.01092,-14.6879 c -11.9646,-5.96221 -18.66352,-16.22278 -16.77065,-25.68716 3.17802,-15.89012 23.64168,-15.94805 38.45738,-0.10887 5.13693,5.4918 6.04832,7.28837 6.04832,11.92281 0,15.32401 -12.38842,21.52077 -27.73505,13.87322 z m 70.84798,-35.2041 c 1.95455,-2.19365 3.55373,-4.88241 3.55373,-5.97502 0,-1.8912 -18.5401,-35.29523 -21.78744,-39.25482 -2.08093,-2.53734 0.95615,-0.89588 16.8189,9.09018 6.76603,4.25941 14.87686,9.05566 18.02406,10.65834 l 5.7222,2.91396 3.8707,-3.05542 c 2.12888,-1.68049 3.9039,-4.29873 3.94447,-5.81833 0.0406,-1.51959 -4.60205,-9.91959 -10.31695,-18.66666 -5.71489,-8.74708 -14.45318,-22.65377 -19.41842,-30.90377 -4.96523,-8.25 -9.78944,-15 -10.72046,-15 -0.93102,0 -3.92683,1.95 -6.65736,4.33333 l -4.96459,4.33334 11.58337,17.33333 c 6.37085,9.53333 11.89752,18.46974 12.2815,19.85868 0.67226,2.43176 0.55463,2.427 -3.17426,-0.12857 -3.88346,-2.66149 -22.84128,-14.57256 -30.77094,-19.33317 l -4.23189,-2.54063 -4.20755,3.75944 -4.20754,3.75944 11.26599,19.97907 c 6.1963,10.98849 11.12012,20.15299 10.94184,20.36556 -0.17829,0.21257 -8.32166,-5.37156 -18.09639,-12.40918 l -17.77222,-12.79567 -4.34341,5.07585 c -2.38888,2.79171 -4.17676,5.67584 -3.97307,6.40918 0.2037,0.73333 3.92965,3.72439 8.27991,6.6468 4.35025,2.9224 17.74762,12.0724 29.77192,20.33333 12.02431,8.26093 22.57513,15.01986 23.44627,15.01986 0.87115,0 3.18308,-1.7948 5.13763,-3.98845 z m 831.47556,-11.54442 13.9219,-14.20545 -9.0685,-8.59157 -9.0685,-8.59157 -5.1764,5.05457 c -4.8289,4.71534 -5.0415,5.23842 -3.1678,7.79407 3.83,5.22401 3.7359,6.26324 -0.9955,10.99465 l -4.6783,4.67834 -5.4986,-5.72237 c -6.2426,-6.49666 -7.9385,-12.34302 -5.7243,-19.73337 3.1114,-10.38484 16.7009,-21.48498 26.2884,-21.47277 8.2106,0.0105 16.5791,8.73552 16.5791,17.28552 0,3.35912 0.9077,3.36869 8.5561,0.0902 6.948,-2.97827 7.3278,-4.43036 3.2515,-12.43383 -4.85,-9.52274 -9.1156,-14.0717 -16.6532,-17.75949 -12.7836,-6.25442 -28.2742,-3.01982 -39.4978,8.24758 -7.5293,7.5586 -12.8826,16.71553 -14.6229,25.0124 -2.9669,14.14481 4.4643,27.87987 20.7946,38.43468 4.3551,2.81487 8.5754,5.11927 9.3784,5.1209 0.803,0.002 7.7248,-6.3895 15.3818,-14.2025 z m -51.4215,-48.13379 c 8.4379,-10.81666 18.9772,-24.15004 23.4206,-29.62972 4.4435,-5.47969 8.0662,-10.57969 8.0506,-11.33334 -0.032,-1.51456 -9.659,-8.7036 -11.6558,-8.7036 -0.692,0 -7.0462,7.58499 -14.1203,16.85554 -7.0742,9.27055 -12.8621,16.22626 -12.8621,15.45714 0,-0.76913 1.5265,-11.80412 3.3923,-24.52221 l 3.3922,-23.1238 -5.0589,-4.45326 -5.0589,-4.45325 -6.4373,7.11992 c -6.6847,7.39355 -39.42859,49.8857 -40.40799,52.43789 -0.7205,1.87747 11.53399,10.55388 12.86609,9.10949 0.9957,-1.07959 19.7468,-26.08378 24.3505,-32.47087 l 2.3713,-3.28993 -0.5107,4.66667 c -0.2808,2.56667 -1.932,14.47269 -3.6692,26.45784 l -3.1586,21.79117 4.6312,3.83962 c 2.5472,2.1118 4.742,3.85577 4.8773,3.8755 0.1353,0.0197 7.1498,-8.81413 15.5877,-19.6308 z m -727.89656,9.96963 5.04806,-4.36371 -14.52676,-19.30296 c -24.9728,-33.18349 -30.39718,-39.84992 -32.4584,-39.89054 -1.1,-0.0217 -4.32961,1.93163 -7.1769,4.34067 l -5.17689,4.38008 12.51023,15.29187 c 13.89334,16.98253 25.29728,31.32792 30.93036,38.90829 2.04357,2.75 4.18507,5 4.7589,5 0.57383,0 3.31496,-1.96366 6.0914,-4.3637 z m 20.82139,-15.30296 c 2.85151,-2.01667 5.19738,-4.12184 5.21303,-4.67815 0.0157,-0.55632 -5.66998,-9.20787 -12.63475,-19.22567 -6.96477,-10.0178 -12.46677,-18.41063 -12.22666,-18.65074 0.24011,-0.24011 7.88856,3.78008 16.99656,8.93375 9.10799,5.15368 19.07127,10.65243 22.14061,12.21945 l 5.58062,2.84913 4.75271,-3.62508 c 2.61399,-1.99378 4.75271,-4.12604 4.75271,-4.73835 0,-1.0991 -36.71674,-62.55243 -38.44231,-64.34145 -1.47538,-1.52962 -13.78039,8.1457 -12.6825,9.97215 0.53503,0.89006 5.99332,9.33196 12.12955,18.75976 6.13623,9.42781 10.95945,17.33879 10.71828,17.57996 -0.24117,0.24117 -10.02751,-4.84483 -21.74742,-11.30222 l -21.30893,-11.74072 -5.31399,3.02713 c -2.92269,1.66492 -5.86717,3.90412 -6.54329,4.97599 -0.90673,1.43746 2.58554,7.50779 13.30883,23.13362 7.99598,11.65163 17.48131,25.53477 21.07851,30.85144 3.5972,5.31667 7.10365,9.66667 7.79212,9.66667 0.68846,0 3.58481,-1.65 6.43632,-3.66667 z m 676.15427,-81.11418 c -3.4353,-2.33536 -6.6641,-3.99943 -7.1749,-3.69793 -0.5109,0.30149 -8.5417,12.08255 -17.84619,26.18014 -9.30466,14.09758 -17.92518,27.13197 -19.1568,28.9653 -1.23161,1.83334 -2.67144,4.05942 -3.19961,4.94685 -0.62297,1.04671 1.48015,3.00733 5.98693,5.58126 l 6.94725,3.96773 20.34472,-30.84862 20.3448,-30.84862 z m -48.61665,37.78085 c 4.45183,-7.51667 11.08905,-19.06667 14.74939,-25.66667 3.66037,-6.6 8.21527,-14.7 10.12216,-18 1.9068,-3.3 3.4741,-6.42117 3.4829,-6.93594 0.01,-0.51477 -2.6427,-2.76525 -5.89239,-5.00107 l -5.90845,-4.06512 -2.54153,3.66774 c -1.39784,2.01725 -5.08107,8.31773 -8.18494,14.00106 -3.10388,5.68333 -5.94671,10.33333 -6.31739,10.33333 -1.1326,0 -19.13924,-10.74078 -19.13924,-11.41637 0,-0.34764 3,-6.61027 6.66667,-13.91696 3.66666,-7.30668 6.66666,-13.58359 6.66666,-13.94867 0,-1.07155 -10.37082,-6.05133 -12.60241,-6.05133 -1.26751,0 -4.89157,5.6891 -9.55528,15 -4.13232,8.25 -11.63733,22.59002 -16.67781,31.86672 -5.04047,9.2767 -9.16449,17.43134 -9.16449,18.12143 0,0.69009 2.93104,2.84998 6.51344,4.79976 l 6.51343,3.54506 1.97872,-3.0199 c 1.08829,-1.66094 4.16479,-7.36086 6.83665,-12.66648 2.67187,-5.30563 5.2655,-9.64659 5.76363,-9.64659 0.49812,0 5.0051,2.43542 10.01551,5.41205 l 9.10982,5.41205 -6.78013,12.72897 c -3.72908,7.00094 -6.5936,12.85442 -6.36561,13.00773 4.58411,3.08265 10.06785,6.06595 11.18217,6.0834 0.78886,0.0124 5.0767,-6.12754 9.52852,-13.6442 z m -555.96751,-0.96198 c 8.18693,-3.71623 17.07156,-10.11732 20.26237,-14.5984 l 2.76813,-3.88748 -7.67956,-16.03209 c -4.22375,-8.81765 -8.44453,-16.06688 -9.37951,-16.1094 -1.42456,-0.0648 -19.85561,8.55301 -21.49254,10.04926 -0.75137,0.6868 3.84559,12.37432 5.19515,13.20839 0.61928,0.38274 3.16404,-0.50661 5.65502,-1.97632 l 4.52906,-2.67221 2.90663,5.17165 c 1.59865,2.84441 2.90664,5.72041 2.90664,6.3911 0,2.33824 -12.05162,7.08415 -17.98928,7.08415 -7.45836,0 -14.34219,-5.58843 -18.87564,-15.32363 -3.85117,-8.27006 -4.2229,-19.92087 -0.7721,-24.19909 3.49153,-4.32871 10.15299,-7.14395 16.90414,-7.14395 6.66081,0 6.58341,0.14556 5.21831,-9.8139 -0.80674,-5.8858 -1.05389,-6.1861 -5.09133,-6.1861 -7.04567,0 -17.30053,3.71232 -23.65232,8.56228 -12.70598,9.70173 -16.05571,28.32792 -8.05161,44.77105 2.32029,4.76667 6.14669,10.99407 8.50312,13.83867 8.73845,10.54878 25.72701,14.49842 38.13532,8.86602 z m 493.67136,-47.1191 c 6.29517,-14.56295 12.09785,-26.2256 13.05311,-26.23512 0.94589,-0.009 4.07198,1.18287 6.94689,2.64954 2.8749,1.46666 6.1388,2.66666 7.25311,2.66666 2.31331,0 7.92003,-10.0903 6.97505,-12.55286 -0.34352,-0.89521 -4.73539,-3.19174 -9.75971,-5.1034 -5.02431,-1.91166 -14.53512,-5.84225 -21.13512,-8.73464 -18.625,-8.16225 -17.59169,-8.11606 -20.67447,-0.92422 -1.46237,3.41158 -2.65886,6.42961 -2.65886,6.70673 0,0.27712 3.58661,2.47737 7.97024,4.88946 6.58255,3.62202 7.82667,4.84989 7.14562,7.05227 -0.45355,1.46666 -5.27005,13.10633 -10.70333,25.86592 -5.43329,12.75959 -9.99881,23.75879 -10.14562,24.44268 -0.29529,1.37563 10.94926,6.40806 13.06642,5.8478 0.73334,-0.19406 6.43333,-12.15093 12.66667,-26.57082 z m -423.86561,14.89911 c 2.49277,-0.83342 5.00995,-1.94107 5.59374,-2.46144 0.58379,-0.52037 -0.22644,-4.18848 -1.8005,-8.15136 -4.4607,-11.23027 -10.59427,-28.84039 -10.59427,-30.41723 0,-0.78399 4.57961,3.36799 10.17691,9.22662 14.07622,14.73341 15.658,14.37472 17.862,-4.05047 0.83099,-6.94695 1.82228,-13.53081 2.20286,-14.63081 0.97738,-2.82487 2.4186,1.346 7.35533,21.28622 2.27587,9.19257 4.28914,16.90536 4.47394,17.13952 0.50037,0.63401 11.74098,-2.71234 13.1166,-3.90483 0.67174,-0.58232 -3.08431,-16.7408 -8.64674,-37.19815 l -9.83439,-36.168609 -4.68659,0.81042 c -2.57763,0.44573 -6.27161,1.43192 -8.20885,2.19154 -3.82711,1.50065 -3.86459,1.68424 -5.95582,29.177219 -0.47414,6.23333 -1.12379,11.78794 -1.44367,12.34356 -0.70669,1.2275 -0.87566,1.05378 -15.63767,-16.0773 -6.58125,-7.63745 -12.57323,-13.450259 -13.49875,-13.095099 -0.91534,0.35125 -4.1516,1.38386 -7.19168,2.29469 -4.18395,1.253539 -5.32327,2.167859 -4.68748,3.761769 0.46197,1.15814 4.16098,12.30571 8.22003,24.77238 11.06264,33.97699 15.12578,44.66666 16.97777,44.66666 0.92121,0 3.71447,-0.68189 6.20723,-1.5153 z m 383.10726,-4.15136 c 4.19983,-10.26904 4.71274,-9.51127 -9.2236,-13.6268 -8.29609,-2.44991 -12.68472,-4.39977 -12.68472,-5.6358 0,-3.21091 2.93503,-13.73842 3.82496,-13.71955 0.46294,0.01 5.34171,1.45811 10.84171,3.21841 l 10,3.20056 1.53747,-2.89055 c 0.8456,-1.5898 1.7456,-4.98007 2,-7.53392 l 0.46253,-4.64336 -10,-3.17901 c -5.5,-1.74846 -10.13374,-3.29021 -10.29719,-3.42613 -0.52756,-0.43868 2.51406,-10.73099 3.47176,-11.74784 0.50971,-0.5412 5.70395,0.4998 11.54275,2.31333 5.83881,1.81352 11.53659,3.30631 12.66175,3.31732 2.2864,0.0224 7.31686,-11.89046 5.64646,-13.371599 -1.60617,-1.42419 -32.58097,-10.65088 -36.86102,-10.98006 -3.7162,-0.28582 -3.9533,0.0782 -7.62324,11.705 -6.42377,20.351219 -16.35103,57.968019 -15.51791,58.801139 1.27241,1.2724 33.41062,12.38289 36.04468,12.46099 1.49214,0.0442 3.07238,-1.56951 4.17361,-4.26213 z m -52.03056,-10.13554 c 0.7688,-1.24394 14.16683,-63.613749 15.12503,-70.409259 0.58655,-4.15973 0.50084,-4.23078 -6.97688,-5.78315 -4.16389,-0.86442 -7.71793,-1.36926 -7.89786,-1.12186 -0.17992,0.2474 -5.00686,7.34982 -10.72652,15.78314 -11.80579,17.407009 -11.22082,16.628949 -11.94565,15.888889 -0.29927,-0.30555 -1.53076,-7.45555 -2.73665,-15.888889 -3.18409,-22.267777 -3.73672,-23.599603 -10.24897,-24.69984 -2.96596,-0.501096 -5.85725,-0.398623 -6.42509,0.227717 -2.07744,2.291459 -18.66809,66.142872 -18.70285,71.980502 -0.008,1.29545 9.32484,4.49162 13.11513,4.49162 0.70212,0 1.90933,-2.85 2.6827,-6.33333 0.77336,-3.48333 2.70716,-12.18333 4.29735,-19.33333 1.59018,-7.15 3.30843,-13 3.81833,-13 0.50991,0 1.9007,5.49281 3.09066,12.20624 1.18996,6.71343 2.9488,12.70425 3.90854,13.31292 4.15851,2.63734 6.58107,0.86675 13.93641,-10.18583 4.1482,-6.23333 8.12712,-11.33333 8.84204,-11.33333 1.40891,0 1.36456,0.26842 -3.63506,22 -4.36278,18.96344 -4.34471,20.40715 0.26825,21.42455 2.01667,0.44479 4.26667,1.00885 5,1.25348 2.51368,0.83851 4.50975,0.65456 5.21109,-0.48024 z m -241.21107,-9.40695 12,-2.16861 -0.30808,-7.17476 c -0.16945,-3.94611 -0.62114,-7.4878 -1.00376,-7.87042 -0.38262,-0.38262 -6.16361,0.35639 -12.84665,1.64224 -6.68303,1.28585 -12.62025,1.83754 -13.19381,1.22597 -0.57357,-0.61156 -1.45256,-4.20607 -1.95332,-7.98779 -1.02809,-7.76411 -1.9927,-6.99813 12.41545,-9.85879 l 8.44317,-1.67635 -0.84759,-4.7945 c -1.70449,-9.641649 -1.86747,-9.843989 -7.17685,-8.909859 -2.67404,0.47046 -7.63264,1.213069 -11.01911,1.650239 l -6.15722,0.79485 -0.94281,-6.287069 c -0.51854,-3.45788 -0.66002,-6.56984 -0.3144,-6.91546 0.34562,-0.34562 5.54027,-1.4859 11.54367,-2.53395 6.00339,-1.04805 11.36175,-2.18149 11.90745,-2.51876 1.0482,-0.64782 -0.21839,-13.524511 -1.45161,-14.757729 -0.64368,-0.643685 -39.80384,7.051689 -40.85407,8.028249 -0.23442,0.21797 0.52736,5.10451 1.69285,10.85898 1.16548,5.75448 4.26004,21.862679 6.8768,35.796009 2.61676,13.93333 5.30974,26.00056 5.98441,26.81605 0.87588,1.0587 3.22548,1.10056 8.21608,0.1464 3.84417,-0.73498 12.3894,-2.3122 18.9894,-3.50494 z m 152.46885,-7.52229 c 14.85084,-4.41022 24.1978,-19.24695 24.1978,-38.4099 0,-14.264919 -2.90849,-22.560799 -10.60974,-30.262037 -17.90837,-17.90837 -45.29691,-9.00748 -52.91461,17.196508 -2.6688,9.18033 -1.9659,26.922889 1.31482,33.188879 5.34083,10.20067 13.91899,17.16112 23.54287,19.10302 6.97407,1.40723 6.98243,1.40676 14.46886,-0.81647 z m -17.44308,-16.94184 c -10.66816,-8.7709 -10.18628,-32.104769 0.87349,-42.296399 7.22096,-6.654153 17.47491,-3.41679 23.13145,7.30303 2.94172,5.5749 2.62541,20.428329 -0.57399,26.953949 -4.91629,10.02745 -16.27326,13.92415 -23.43095,8.03942 z m -46.38635,13.33995 c 7.43594,-3.79958 10.80705,-8.43097 11.66277,-16.02291 1.40798,-12.49158 -4.91248,-20.886429 -22.3288,-29.657139 -10.72827,-5.40267 -12.49207,-7.92906 -8.04803,-11.52762 4.11541,-3.33246 10.37375,-3.09128 17.83761,0.6874 l 6.21491,3.14639 1.33695,-4.81305 c 2.05894,-7.412217 1.67939,-9.064896 -2.81711,-12.266692 -3.07563,-2.190037 -6.67948,-3.129665 -13.74189,-3.582903 -12.52361,-0.803717 -19.17749,2.267507 -23.28197,10.74624 -3.43095,7.087395 -3.50596,11.956285 -0.29319,19.029535 2.02482,4.45782 4.1168,6.27891 11.92839,10.383779 12.28525,6.45572 17.5576,10.94461 17.5576,14.94859 0,4.10401 -3.57059,5.92838 -11.60283,5.92838 -4.70818,0 -7.7907,-0.91455 -11.43955,-3.39401 -5.31662,-3.61274 -5.44059,-3.53814 -6.74887,4.06068 -0.37876,2.2 -1.09418,5.04818 -1.58981,6.3293 -0.71619,1.85121 0.56456,3.01161 6.23996,5.65364 9.50884,4.42657 20.86902,4.5633 29.11386,0.35039 z m 68.35505,1160.00086 c 0.54697,-14.8505 1.94322,-32.1009 3.10279,-38.3343 3.93261,-21.14 9.61682,-28.3794 54.84567,-69.8513 53.70363,-49.2426 77.75461,-79.8991 104.36728,-133.0312 11.50865,-22.977 14.77982,-28.2576 25.64207,-41.3938 6.84782,-8.2813 15.63845,-19.10926 19.53474,-24.06216 3.89628,-4.9528 7.62153,-8.6731 8.27833,-8.2671 5.67808,3.5092 25.72828,47.62456 38.06595,83.75446 9.73158,28.4981 18.97728,53.2041 24.60158,65.7397 2.0839,4.6446 3.5311,8.4448 3.216,8.4448 -2.1262,0 -16.4518,-7.339 -22.98229,-11.7737 -16.47882,-11.1906 -35.1692,-35.2751 -42.44841,-54.6993 -1.82622,-4.8732 -4.02165,-10.4602 -4.87874,-12.4155 l -1.55833,-3.5551 -4.48628,7.4475 c -17.11819,28.4169 -56.77299,65.6938 -122.29485,114.9613 -21.1532,15.9056 -48.6205,37.8587 -48.06416,38.415 1.64002,1.6401 69.29022,-42.7367 92.73083,-60.829 27.86317,-21.5058 57.06214,-48.3059 71.45527,-65.5848 4.26064,-5.1149 8.13507,-9.2998 8.60984,-9.2998 0.47477,0 2.00434,2.5448 3.39905,5.6551 7.52621,16.7838 26.75586,39.2703 42.3807,49.5585 4.31468,2.8411 12.94367,7.2443 19.17557,9.785 11.8291,4.8227 26.9796,7.3473 26.9796,4.4957 0,-0.8485 -3.0023,-7.5254 -6.6717,-14.8375 -8.4053,-16.7496 -15.4472,-34.3435 -25.6119,-63.9901 -8.82859,-25.7499 -19.3069,-52.6493 -24.50338,-62.904 l -3.36922,-6.6488 16.48916,8.5825 c 21.95714,11.4286 45.18064,25.5665 78.66634,47.89 34.2115,22.8073 43.3664,29.3625 65.221,46.7003 l 17.2859,13.7133 -19.0909,18.6667 c -96.4281,94.2855 -206.41116,152.2353 -335.082,176.5542 -23.25859,4.3959 -50.10341,8.1119 -58.61128,8.1134 l -5.38871,9e-4 z m 37.09295,-20.6125 c 8.14404,-6.8527 11.22043,-18.4151 7.35878,-27.6573 -2.25885,-5.4062 -5.55781,-7.3978 -12.25378,-7.3978 -4.13662,0 -5.92306,0.9812 -10.51876,5.7776 -9.13837,9.5373 -11.09278,22.7229 -4.42074,29.825 4.29774,4.5747 14.06762,4.3051 19.8345,-0.5475 z m -14.43013,-4.5978 c -5.64513,-5.6451 2.67521,-23.3797 10.42991,-22.2311 4.14791,0.6144 5.77825,3.8526 4.73621,9.4071 -1.91907,10.2295 -10.50261,17.4875 -15.16612,12.824 z m 77.00936,-71.9485 11.33333,-10.7179 -10.46953,8.3965 c -11.00557,8.8265 -29.25499,27.4252 -31.68065,32.2869 -0.78455,1.5725 3.27829,-2.1149 9.02853,-8.1942 5.75024,-6.0793 15.55499,-15.8764 21.78832,-21.7713 z m -90.07159,18.2716 c -3.8207,-2.9472 -20.54529,-13.681 -111.9284,-71.835 -146.98461,-93.5376 -209.26911,-142.3159 -262.45788,-205.54443 -9.17547,-10.90742 -10.86152,-14.06761 -7.50547,-14.06761 0.66692,0 3.73473,3.45 6.81736,7.66667 14.19963,19.42338 36.92653,38.22065 60.47934,50.02211 5.13333,2.5721 13.83333,8.7353 19.33333,13.696 25.54808,23.04306 60.37681,40.70246 98.91632,50.15416 9.05296,2.2202 12.49601,3.6929 14,5.9883 4.10465,6.2645 21.39321,17.8842 36.40239,24.4663 8.28519,3.6334 16.02787,7.4281 17.20596,8.4327 8.25499,7.0394 27.95423,15.44 49.13888,20.9549 8.24829,2.1473 17.84829,5.345 21.33333,7.106 25.16336,12.7156 60.26007,16.0036 87.66977,8.2134 41.75419,-11.8671 78.33002,-31.5981 100.699,-54.3227 3.67138,-3.7298 6.90856,-6.5406 7.19373,-6.2463 0.84969,0.8769 -20.89622,36.1581 -31.06554,50.4017 -19.12871,26.7925 -50.21922,60.2483 -88.93889,95.7054 l -13.36483,12.2387 z m -32.59507,-106.1953 c -16.23155,-4.2225 -35.73394,-14.6762 -46.97266,-25.1784 -23.35581,-21.8251 -41.62086,-56.9485 -53.08081,-102.07336 -5.45785,-21.4909 -6.48404,-22.15794 -3.23118,-2.1003 6.41925,39.58206 25.70797,82.04356 47.7432,105.10026 4.38028,4.5834 7.23101,8.3334 6.33496,8.3334 -0.89604,0 -7.74115,-2.489 -15.21134,-5.5311 -43.72038,-17.8042 -72.06368,-53.6591 -83.14554,-105.18076 -1.88252,-8.7522 -2.42894,-17.18225 -2.43229,-37.52476 -0.002,-14.43013 -0.4204,-25.49404 -0.92893,-24.58645 -1.32397,2.36292 -3.74348,27.39319 -3.73421,38.631 0.0106,12.84359 3.27451,33.67281 7.44356,47.50247 4.50835,14.9552 17.64023,41.8294 24.08707,49.2939 l 5.12818,5.9377 -5.99664,-3.271 c -17.2529,-9.411 -39.3881,-42.3338 -47.24098,-70.26386 -5.8412,-20.7753 -7.80044,-36.39817 -6.89835,-55.00715 0.44436,-9.16666 1.09672,-18.46666 1.44969,-20.66666 0.40282,-2.51074 -0.11386,-1.7661 -1.38774,2 -5.40773,15.98745 -5.76331,50.77204 -0.72919,71.33331 3.32416,13.57716 8.56124,28.14896 14.32691,39.86376 2.4896,5.0584 4.35456,9.3691 4.14436,9.5793 -0.21021,0.2102 -3.98384,-1.3464 -8.38586,-3.4592 -27.72615,-13.3073 -52.59843,-55.14726 -63.29384,-106.47246 -1.69305,-8.12463 -2.43649,-10.09172 -2.52691,-6.68603 -0.22638,8.52671 3.84337,28.07815 9.15951,44.00301 8.21826,24.61842 17.81438,42.17918 30.79685,56.35798 5.92557,6.4716 6.60921,7.6768 3.88632,6.851 -7.87818,-2.3894 -26.75568,-14.5951 -37.97079,-24.551 -20.21622,-17.94626 -42.36154,-54.96891 -52.72935,-88.153 -0.7706,-2.46647 -1.07125,-2.68376 -1.15605,-0.83554 -0.20419,4.45047 9.17801,30.47396 16.01203,44.41266 7.54212,15.38295 16.46001,29.31252 23.65156,36.94322 l 4.88847,5.18696 -7.33096,-3.85366 c -14.39781,-7.5685 -35.12343,-31.53281 -47.82534,-55.29885 -5.87728,-10.99674 -12.3956,-28.70059 -15.57085,-42.29065 -3.31063,-14.16948 -7.22922,-43.98877 -7.25199,-55.18545 -0.0115,-5.64005 -0.62085,-10.62546 -1.35418,-11.07869 -3.26019,-2.0149 -0.56833,43.83129 3.7969,64.66666 5.20997,24.86737 17.30206,56.40783 26.03348,67.90452 1.90943,2.51415 3.2485,4.79437 2.97572,5.06715 -1.6872,1.6872 -35.73368,-26.37268 -43.53243,-35.87785 -11.17597,-13.62135 -19.4985,-29.60064 -24.62993,-47.28953 -6.14861,-21.19529 -6.46128,-57.31528 -0.73864,-85.32811 1.46312,-7.16208 2.45813,-13.22405 2.21113,-13.47105 -1.11374,-1.11374 -5.08284,11.80707 -8.39965,27.34381 -3.27944,15.36167 -3.61936,19.5322 -3.55783,43.65107 0.0383,15.01297 0.72203,29.28874 1.56455,32.66666 3.25964,13.06895 2.80489,13.71622 -2.31139,3.28995 -13.96323,-28.45512 -19.27967,-67.1911 -14.04031,-102.29872 2.28081,-15.28313 6.467,-32.03142 10.2095,-40.8466 4.24265,-9.99323 1.36356,-7.78892 -3.45342,2.64404 -5.42025,11.73955 -10.86283,30.09748 -14.15567,47.74736 -1.93117,10.35122 -2.4089,11.65046 -2.49934,6.79731 -0.32769,-17.58296 7.38515,-83.25658 13.93644,-118.66666 4.86887,-26.31645 6.78922,-34.17349 14.48573,-59.26766 2.68793,-8.76388 4.7112,-17.11031 4.49615,-18.54762 -0.30699,-2.05181 -7.42124,18.15191 -17.54124,49.81528 -0.35157,1.1 -0.68659,-4.68522 -0.74449,-12.85604 -0.11147,-15.7329 2.17217,-26.97978 11.84831,-58.35247 2.24061,-7.26468 3.82759,-13.45476 3.52663,-13.75573 -0.71649,-0.71648 -10.45971,24.55046 -14.31737,37.12901 l -3.01633,9.83523 -1.77784,-6.66666 c -0.97781,-3.66667 -2.98146,-9.72816 -4.45254,-13.46998 l -2.67469,-6.8033 4.20426,-11.86336 c 3.9846,-11.24354 4.82187,-12.4729 16.02537,-23.53003 6.5016,-6.41666 12.43036,-11.66666 13.17502,-11.66666 1.72755,0 1.79465,62.49656 0.0802,74.66666 -0.67151,4.76667 -1.88355,18.26667 -2.69341,30 -0.80987,11.73333 -1.75681,22.83333 -2.10431,24.66666 -0.47005,2.47985 -0.31093,2.81123 0.62143,1.29422 0.68928,-1.12151 2.16729,-8.32151 3.28446,-16 3.65013,-25.08807 5.25575,-56.64484 4.47546,-87.96088 l -0.7475,-30 18.5841,-15.75827 c 11.31694,-9.59614 19.48232,-15.5853 20.8811,-15.31592 1.845,0.35531 2.75257,3.45627 4.61208,15.75828 5.60591,37.08717 13.49795,68.87351 21.00625,84.60575 9.40253,19.70123 20.12384,26.33374 52.68742,32.59398 22.37613,4.30173 46.60473,5.87516 77.87911,5.05754 41.05783,-1.0734 76.22073,-7.15475 94.5564,-16.35335 27.17657,-13.63387 45.19979,-49.04897 56.25307,-110.53565 1.57677,-8.7712 3.69045,-17.5403 4.69707,-19.48687 3.17615,-6.142 10.12838,-8.41637 27.48333,-8.99094 l 15.53565,-0.51435 15.658,23.80324 c 34.87387,53.01513 46.62524,73.55555 53.28431,93.13656 8.64861,25.43124 2.41882,44.0422 -20.12825,60.13146 -10.45044,7.45728 -18.19576,10.02752 -30.68513,10.18268 -10.60749,0.13178 -17.13113,-2.32425 -27.78878,-10.46197 -13.79936,-10.53659 -23.07973,-11.21721 -41.23535,-3.02415 -14.23722,6.4248 -19.95295,7.47432 -28.17248,5.17299 -7.87119,-2.20379 -15.34929,-10.18532 -15.30767,-16.33819 0.0599,-8.86131 4.43485,-15.19739 17.54265,-25.40652 1.7021,-1.32569 -0.15669,-0.72569 -4.13065,1.33334 -9.05407,4.69119 -19.23179,13.74282 -21.436,19.06426 -2.33951,5.64808 -0.98215,15.0721 3.04803,21.16212 3.86583,5.84166 10.17055,9.24516 21.61335,11.66763 9.1329,1.93345 17.22245,0.30268 29.33333,-5.91331 4.91543,-2.52288 8.76815,-3.43449 14.66667,-3.47038 8.71504,-0.053 12.24447,1.29104 25.94918,9.88187 4.73871,2.97047 11.03871,6.05625 14,6.85727 7.36047,1.99101 22.3923,0.76316 32.05081,-2.61802 l 8,-2.80058 3.04982,3.62308 c 1.6774,1.99269 7.84422,10.65705 13.70404,19.25412 11.76987,17.26783 22.95126,30.06649 30.15887,34.52104 5.71186,3.53012 4.45551,4.59324 -6.94939,5.88057 -7.56365,0.85374 -8.29795,0.6692 -14.63001,-3.6767 -9.14675,-6.27771 -17.70359,-17.28205 -26.17627,-33.66342 -3.93,-7.59839 -7.32205,-13.63865 -7.5379,-13.4228 -0.68032,0.68032 7.31329,19.7816 11.06535,26.44141 4.94367,8.77487 15.61117,20.1486 21.63989,23.07254 l 5.00893,2.42934 -6.66666,1.01098 c -7.95533,1.2064 -54.78915,2.08895 -55.8313,1.0521 -0.40018,-0.39814 0.54408,-4.59814 2.09837,-9.33333 4.06139,-12.3732 4.03521,-43.94277 -0.0364,-43.94277 -0.57855,0 -0.7995,5.2792 -0.49101,11.73156 1.78847,37.40729 -18.36753,60.04381 -56.55919,63.51975 l -9.18043,0.83553 6.10678,-3.28717 c 9.0041,-4.84675 20.25461,-17.76342 26.54809,-30.47977 6.02388,-12.17158 8.88622,-22.68849 9.9307,-36.4877 0.76429,-10.09745 0.26275,-8.77684 -4.11468,10.83447 -5.54126,24.82532 -20.13048,45.70654 -38.41076,54.97644 -5.41112,2.74397 -8.55227,3.39055 -16.06013,3.30583 -8.64591,-0.0976 -29.11558,-3.85461 -36.72943,-6.74139 -3.08059,-1.16801 -2.96077,-1.29158 2.06277,-2.12733 19.09667,-3.17707 32.93187,-10.17666 46.10396,-23.32525 10.07623,-10.05824 16.69388,-21.19191 24.01807,-40.40848 6.29384,-16.51324 3.60335,-14.4726 -3.97636,3.01592 -10.63884,24.54678 -23.68461,39.69429 -41.80661,48.54188 -17.63439,8.60952 -29.59652,10.4089 -44.1466,6.64066 -12.41203,-3.21452 -12.92142,-4.01419 -3.6027,-5.65565 15.49934,-2.73015 31.44425,-12.37888 44.55566,-26.96193 8.54154,-9.50025 37.34336,-47.88303 36.53628,-48.69011 -0.7526,-0.7526 -4.20743,3.15928 -18.34837,20.77568 -21.59581,26.90348 -32.54617,37.29086 -47.02262,44.6051 -9.5467,4.82347 -13.33355,5.59533 -31.94091,6.51038 l -11.6302,0.57193 10.53436,-6.33133 c 16.66615,-10.01665 31.35877,-21.86786 59.86111,-48.28452 16.14086,-14.95975 8.40223,-10.2948 -14.09087,8.49417 -33.13598,27.67918 -53.67125,39.78105 -67.42755,39.73646 -7.22772,-0.0234 -11.61665,-1.22136 -11.61665,-3.17068 0,-1.80917 16.38032,-17.9868 26,-25.67828 13.37348,-10.69284 25.49677,-18.56174 39.26274,-25.48438 7.73883,-3.8917 12.27059,-6.70783 10.07059,-6.25806 -5.55857,1.1364 -28.1704,12.60966 -38.27312,19.41981 -21.39059,14.41921 -56.77693,45.19834 -68.09642,59.23045 -7.64438,9.47629 -17.36779,25.71287 -20.36311,34.0032 -2.07824,5.75208 -5.91854,25.947 -5.92893,31.17836 -0.0106,5.32006 1.67402,0.54529 3.4807,-9.86565 1.03192,-5.94641 3.59251,-14.59687 5.69021,-19.22325 4.13834,-9.12691 15.72765,-27.01534 19.54756,-30.17223 2.20388,-1.82135 2.31225,-1.67606 1.52084,2.03891 -7.56504,35.51073 -6.18707,77.04647 3.56085,107.33333 2.78564,8.65501 2.56225,2.82996 -0.51133,-13.33334 -5.35226,-28.14635 -4.81231,-62.40486 1.43765,-91.21561 2.88632,-13.30521 4.4845,-16.36708 11.22754,-21.51024 4.51229,-3.4417 4.86093,-3.49891 9.6941,-1.59086 5.35262,2.11312 6.08869,3.20759 11.85384,17.62559 9.48729,23.72669 32.99555,49.67938 58.54876,64.63678 12.12248,7.09581 32.92,15.17489 50.15176,19.48211 18.57624,4.6433 52.90993,6.00369 67.12576,2.65971 19.19063,-4.5142 37.99546,-16.81279 52.66763,-34.44525 9.43208,-11.33512 21.57102,-34.85056 24.8048,-48.05162 1.22282,-4.99184 3.19177,-10.25397 4.37544,-11.69362 1.41848,-1.72525 7.15188,-3.87152 16.81879,-6.29603 l 14.66667,-3.67848 8.2674,24.57284 c 4.54708,13.51506 7.79977,24.0325 7.22821,23.37209 -0.57156,-0.6604 -4.38929,-6.30073 -8.48386,-12.53407 -7.26826,-11.06479 -15.67842,-20.58406 -15.67842,-17.74604 0,0.78074 1.00239,2.24299 2.22752,3.24945 1.22513,1.00646 6.85076,8.81812 12.5014,17.35925 9.08265,13.72872 13.26404,21.2872 18.33177,33.13734 1.38135,3.23009 1.42824,3.18879 1.51401,-1.33333 0.18282,-9.63888 -11.01534,-48.00434 -17.89432,-61.30682 -1.21569,-2.35088 -1.98179,-4.50288 -1.70245,-4.78222 1.38461,-1.38461 16.00468,15.80534 19.71432,23.17965 2.3307,4.63316 4.4871,8.17448 4.792,7.86959 0.30489,-0.30489 -0.71817,-4.67427 -2.27346,-9.70973 -4.72949,-15.31231 -10.38215,-22.52053 -31.21934,-39.81066 -3.46453,-2.87477 -11.99531,-12.17477 -18.9573,-20.66666 -6.96198,-8.4919 -18.44275,-20.93004 -25.51282,-27.64033 -7.07006,-6.71028 -12.514,-12.55094 -12.09763,-12.97924 0.41636,-0.4283 5.51636,-1.76251 11.33333,-2.96491 5.81697,-1.2024 13.61416,-3.52913 17.32709,-5.1705 l 6.75077,-2.98432 10.58256,3.60991 c 35.40151,12.07612 56.02504,30.39533 62.5889,55.59571 3.67077,14.09301 1.41022,47.78535 -4.14375,61.76053 l -1.8546,4.66667 2.996,-3.57011 c 1.6478,-1.96355 4.19099,-5.26355 5.65153,-7.33333 l 2.65554,-3.76323 1.08163,8 c 0.59489,4.4 1.91744,16.7 2.93899,27.33333 l 1.85736,19.33333 L 943.561,806.912 c -0.29709,-15.03333 -0.92754,-29.13333 -1.40099,-31.33333 -0.86048,-3.99839 -0.85994,-3.9988 1.35257,-1.00285 1.21738,1.64843 5.84103,10.29081 10.2748,19.20529 l 8.06139,16.20815 2.55302,-4.03222 c 2.25457,-3.56085 5.70311,-16.97092 8.49788,-33.04504 l 0.92729,-5.33333 2.9655,9.34952 c 1.63103,5.14224 3.70128,10.54223 4.60057,12 1.42051,2.30268 1.52043,2.03812 0.76144,-2.01619 -1.34303,-7.17413 -7.82345,-23.36858 -9.22287,-23.04777 -0.68512,0.15705 -2.33626,6.75705 -3.66921,14.66666 -1.33295,7.90961 -3.37049,17.68111 -4.52787,21.71445 l -2.10432,7.33333 -3.08027,-8.48728 c -1.69414,-4.668 -6.21212,-13.61237 -10.03994,-19.87638 l -6.95968,-11.3891 1.55317,-12.81514 c 5.37329,-44.33474 -16.34472,-73.28797 -68.673,-91.55097 l -10.81496,-3.77451 1.81496,-4.34381 c 3.67073,-8.78529 1.28139,-19.99609 -5.84813,-27.43946 l -3.52163,-3.67667 6.59236,1.01 c 3.6258,0.5555 19.79237,0.98413 35.9257,0.95251 29.60256,-0.058 44.24976,-1.5119 72.16158,-7.16281 l 11.14908,-2.25719 6.38992,10.73874 c 6.69345,11.24883 13.98414,33.69229 16.32524,50.25514 1.5628,11.05621 4.0049,13.37055 3.1617,2.99625 -0.7073,-8.70179 -3.8927,-22.68345 -6.6971,-29.3954 -3.24289,-7.76137 -1.8746,-7.96832 2.9791,-0.45058 7.5978,11.76809 23.8442,45.07377 27.6418,56.66666 1.9218,5.86667 4.373,14.56667 5.4471,19.33334 2.0193,8.96116 5.271,39.94831 4.2945,40.92477 -0.3039,0.30387 -1.3117,-2.62989 -2.2397,-6.51947 -3.1131,-13.04909 -19.1565,-52.97314 -20.6764,-51.4533 -0.3151,0.31508 2.4537,9.52977 6.1528,20.4771 8.5578,25.32642 10.577,35.78485 10.577,54.78458 0,14.11606 -3.1234,33.82705 -9.0236,56.94564 -0.537,2.1043 -0.9764,-9.5957 -0.9764,-26 0,-28.39207 -0.1744,-30.44964 -3.6276,-42.79803 -1.9952,-7.13463 -6.5572,-19.53746 -10.1379,-27.56186 -6.0086,-13.4657 -6.4287,-15.08585 -5.4519,-21.02795 2.1432,-13.03668 1.4065,-31.02359 -1.6399,-40.04243 -3.1755,-9.40104 -4.9511,-10.34711 -2.7154,-1.44679 1.1711,4.66201 2.1506,30.51976 1.5802,41.71774 -0.086,1.68732 -1.6139,-0.19794 -4.1605,-5.1334 -5.46319,-10.58815 -6.22749,-8.77215 -1.09759,2.60817 22.37089,49.62791 28.06519,87.39173 18.70519,124.05029 -2.7739,10.8641 -10.3022,29.4051 -11.4667,28.24061 -0.34,-0.33995 0.2737,-5.27909 1.3637,-10.97585 3.3434,-17.47467 1.9094,-37.66465 -4.2494,-59.82616 -2.4621,-8.85978 -4.18679,-9.34704 -1.9736,-0.5576 0.809,3.21286 2.0611,13.59608 2.7823,23.07383 2.1848,28.70933 -3.076,56.10027 -14.95293,77.85343 -6.68545,12.24468 -16.94771,28.45466 -17.60074,27.80163 -0.26393,-0.26393 0.69314,-5.27726 2.12681,-11.14075 3.99109,-16.3229 4.86093,-48.08451 1.82683,-66.70554 -1.31037,-8.0421 -3.20108,-16.722 -4.20157,-19.28867 l -1.81906,-4.66667 0.77105,6 c 3.70456,28.82737 4.11733,42.27944 1.90243,62 -2.73428,24.34496 -9.78362,46.28835 -21.41749,66.66906 -6.93703,12.15255 -15.65422,24.00065 -16.80886,22.84605 -0.34707,-0.3471 0.76016,-5.93 2.46052,-12.4064 2.74746,-10.46473 3.09269,-14.8177 3.10166,-39.10871 0.009,-23.92558 -0.36159,-28.79734 -2.97108,-39.07597 -3.72223,-14.66163 -10.2407,-30.50406 -13.89617,-33.77313 -2.44961,-2.19068 -2.34804,-1.6317 0.85954,4.73049 2.00058,3.9681 5.19492,12.9681 7.09854,20 3.19491,11.80188 3.46649,14.93893 3.53087,40.78527 0.0908,36.44563 -1.44106,44.32516 -13.21962,68.00005 -7.71591,15.50886 -16.09712,28.38216 -17.53937,26.93996 -0.29181,-0.2918 0.39907,-2.7555 1.53528,-5.4748 1.1362,-2.7193 2.67673,-8.0615 3.42339,-11.8714 1.49882,-7.64786 0.30635,-30.26046 -1.59577,-30.26046 -0.65548,0 -1.19178,4.5634 -1.19178,10.1409 0,16.78316 -6.70929,36.25106 -18.45343,53.54506 -5.68869,8.377 -29.0777,31.2786 -36.20886,35.4544 l -4.22451,2.4737 4.00275,-5.5256 c 4.44049,-6.1299 10.97341,-23.1124 14.55045,-37.8241 3.64149,-14.9769 3.21214,-46.17236 -0.83281,-60.51036 -1.69324,-6.00204 -3.8864,-12.00204 -4.8737,-13.33339 -1.18771,-1.60158 -0.86458,0.96296 0.95498,7.57938 3.75681,13.66081 4.03271,41.25417 0.57325,57.33327 -8.29394,38.5492 -18.08032,55.1198 -39.95728,67.6566 -6.70863,3.8445 -12.73198,6.9945 -13.38522,7 -0.65325,0.01 1.52403,-2.3769 4.83839,-5.2943 6.15881,-5.4212 19.3721,-23.4506 18.11075,-24.712 -0.38424,-0.3842 -2.31691,1.6366 -4.29482,4.4908 -1.97791,2.8541 -8.29672,9.7636 -14.04179,15.3544 -11.39542,11.0894 -21.09192,16.5209 -36.09148,20.2166 -4.76666,1.1745 -9.86666,2.4779 -11.33333,2.8965 -1.46667,0.4186 0.33451,-1.6184 4.00261,-4.5267 14.15504,-11.2228 24.6761,-25.571 31.79082,-43.355 5.54574,-13.8622 7.55471,-26.0169 7.40699,-44.814 -0.1892,-24.07686 -1.87628,-27.35866 -2.86827,-5.5795 -0.45092,9.9 -1.73488,22.2692 -2.85325,27.4872 -6.72594,31.3811 -23.5469,55.3655 -46.60897,66.4579 -8.90932,4.2852 -10.85075,4.7147 -21.00984,4.6481 -6.55793,-0.043 -15.33468,-1.1507 -21.19342,-2.6748 z m 14.65977,-7.9313 c -0.78873,-1.4738 -3.14319,-5.2238 -5.23214,-8.3334 -14.67388,-21.8432 -29.02407,-61.5459 -33.48893,-92.6537 -0.86834,-6.04996 -1.84108,-10.99996 -2.16164,-10.99996 -0.97557,0 0.96728,22.58366 3.03969,35.33326 3.65898,22.5103 10.70419,41.1364 22.54632,59.6078 7.32556,11.4264 19.62353,25.1307 15.2967,17.046 z m 31.36848,-46.0958 c 4.86079,-13.2926 12.0337,-41.4059 13.23969,-51.8913 1.15254,-10.02066 -1.0037,-4.0096 -5.76684,16.0768 -2.27068,9.5755 -7.13735,26.555 -10.81481,37.7321 -3.67746,11.1772 -6.64391,20.7426 -6.59211,21.2566 0.155,1.5378 5.2075,-10.2486 9.93407,-23.1742 z m -26.67524,-8.2247 c -1.04605,-14.1049 -3.54369,-28.8766 -6.78751,-40.1433 -2.42716,-8.4302 -3.65074,-8.64776 -1.77879,-0.3164 1.11385,4.9574 4.6465,28.1391 7.28315,47.7931 1.41444,10.5434 2.25336,5.7489 1.28315,-7.3334 z m -133.8856,-13.8337 c -6.58494,-10.538 -12.4528,-25.0709 -16.39873,-40.61456 -1.65943,-6.5367 -3.21311,-10.885 -3.45262,-9.6627 -1.56522,7.9875 10.55805,40.82426 19.84838,53.76086 6.22558,8.669 6.22745,6.4775 0.003,-3.4836 z m 64.68031,-6.0061 c -1.74886,-5.8429 -4.22361,-15.3942 -5.49944,-21.2251 -1.27583,-5.831 -2.87227,-11.50166 -3.54765,-12.60166 -0.95168,-1.5501 -1.08555,-1.4001 -0.59503,0.6666 0.34812,1.4667 1.02754,5.36666 1.50983,8.66666 1.77512,12.1459 9.32187,37.1071 10.77852,35.6505 0.29343,-0.2934 -0.89737,-5.3141 -2.64623,-11.157 z m 174.63052,-20.4935 0.32095,-17.99996 -1.05725,15.33326 c -0.58149,8.4334 -1.72547,17.7334 -2.54217,20.6667 -2.11501,7.5965 -1.65569,10.1554 0.83764,4.6667 1.53597,-3.3813 2.20828,-9.6247 2.44083,-22.6667 z m 82.97867,-34.66664 c 0.49753,-17.40168 -0.62295,-28.4798 -3.69358,-36.51825 -2.41017,-6.30945 -2.66352,-3.40215 -0.51061,5.8594 1.49008,6.41012 1.89609,14.43483 1.56337,30.89952 -0.298,14.74681 -0.0155,21.48571 0.83838,20.00001 0.70829,-1.2324 1.51939,-10.3407 1.80244,-20.24068 z m -159.57302,8.26868 c 16.08247,-12.3454 23.56964,-27.96751 24.73119,-51.60201 0.61439,-12.50129 0.326,-15.78055 -1.95332,-22.21126 l -2.67412,-7.5446 5.68451,-1.43137 c 3.12648,-0.78726 6.64395,-1.79955 7.81661,-2.24954 1.61808,-0.62092 2.96643,1.06093 5.59272,6.97597 5.74374,12.93634 8.67431,27.57195 9.55519,47.71975 0.62284,14.24563 1.12402,17.83038 2.14375,15.33333 0.73198,-1.79242 1.25408,-9.88746 1.16023,-17.98898 -0.18614,-16.06856 -3.84131,-31.9748 -10.25702,-44.6356 -1.82433,-3.60014 -3.31697,-7.04975 -3.31697,-7.66579 0,-0.61603 4.1835,-3.14391 9.29665,-5.6175 9.19177,-4.44669 9.32835,-4.46875 12.10581,-1.95518 5.81867,5.26582 15.78311,22.14398 20.7436,35.1363 2.82811,7.40729 5.46259,13.4678 5.85439,13.4678 0.39181,0 2.13895,-3.5916 3.88255,-7.98134 2.78944,-7.02276 3.06279,-9.26902 2.27603,-18.70301 l -0.89416,-10.72167 7.38767,4.90513 c 4.06321,2.69782 7.70881,4.58399 8.10132,4.19147 0.6092,-0.6092 -14.7837,-11.69058 -16.23913,-11.69058 -0.2831,0 -0.5569,6.15 -0.60845,13.66667 -0.0515,7.51667 -0.60937,14.86666 -1.23962,16.33333 -1.0893,2.53494 -1.15053,2.51703 -1.23961,-0.36261 -0.22159,-7.16279 -12.97238,-29.82596 -22.54805,-40.07675 l -4.12518,-4.41601 5.16487,-6.53404 c 5.85963,-7.413 9.86203,-16.74713 9.19254,-21.43823 -0.39627,-2.77658 -1.1546,-2.14862 -6.07844,5.0335 -9.21823,13.44609 -21.72428,21.87194 -39.96656,26.92713 -36.00889,9.97857 -84.39856,5.8978 -125.58704,-10.59093 -5.41979,-2.16967 -10.10648,-3.69253 -10.41488,-3.38413 -0.93537,0.93537 14.48856,12.24467 21.60237,15.83952 3.66666,1.85288 9.21666,4.13143 12.33333,5.06344 3.11666,0.932 5.66666,1.96335 5.66666,2.29189 0,1.32509 -17.64848,22.90893 -25.87703,31.64722 -4.83387,5.13333 -8.78904,9.49874 -8.78925,9.70091 -2.1e-4,0.20216 1.94962,-0.63704 4.33295,-1.86491 6.16567,-3.17647 22.88407,-19.67097 29.99127,-29.58961 l 6.03355,-8.42027 5.48759,0.90593 c 3.01818,0.49826 5.73385,1.13364 6.03483,1.41196 0.30099,0.27832 -1.11113,4.73296 -3.13804,9.8992 -5.45007,13.89132 -16.89447,28.00651 -32.13275,39.63161 l -3.94311,3.00815 5.26156,-2.04941 c 15.96779,-6.21952 32.78735,-27.22151 36.12887,-45.11282 0.94319,-5.05008 1.05096,-5.13107 5.78533,-4.34801 2.65333,0.43886 5.57423,0.80453 6.4909,0.8126 3.48627,0.0307 1.38534,22.85963 -3.74386,40.68134 -3.51738,12.22132 -6.2628,18.67991 -11.0521,26 l -3.9256,6.00001 6.11663,-5.86825 c 10.05025,-9.6421 16.5863,-29.30216 17.53605,-52.74743 l 0.53838,-13.29011 21.09858,-0.12802 c 11.60422,-0.0704 22.07968,-0.57936 23.2788,-1.131 3.18531,-1.46537 5.84103,10.18961 5.73409,25.1648 -0.14971,20.96428 -9.16208,41.59931 -24.31247,55.66671 -8.78978,8.1614 -6.75704,8.1279 3.91539,-0.065 z m -12.75033,-22.48129 c 5.36278,-15.56908 5.89669,-18.2687 5.89107,-29.78739 -0.006,-13.02454 -1.61086,-21.86214 -4.26725,-23.50388 -1.04326,-0.64477 -1.18523,-0.14409 -0.45894,1.61849 1.99262,4.83569 2.43539,22.22149 0.80755,31.70931 -0.89735,5.23018 -3.3808,15.46425 -5.51877,22.74238 -2.13797,7.27813 -3.88722,13.82818 -3.88722,14.55558 0,3.1562 1.90845,-1.2941 7.43356,-17.33449 z m 145.96923,1.92001 c -1.66727,-8.58218 -8.53299,-27.32418 -10.88061,-29.70179 -0.72103,-0.73024 0.74696,4.36975 3.2622,11.33333 2.51524,6.96359 5.29513,16.15864 6.17754,20.43347 0.8824,4.27482 1.93362,7.44315 2.33604,7.04073 0.40242,-0.40242 -4.1e-4,-4.5 -0.89517,-9.10574 z m -66.73923,-9.03108 c 4.06428,-12.63993 3.30089,-24.58652 -2.52755,-39.5545 -2.32974,-5.983 -5.22576,-11.683 -6.4356,-12.66667 -1.87251,-1.52246 -2.07461,-1.49099 -1.35875,0.21152 7.74136,18.41099 8.08394,19.67232 8.6917,32.00091 0.44777,9.08299 0.0126,15.05591 -1.53778,21.10769 -2.51376,9.81216 -2.52823,9.94163 -1.00601,9.00084 0.63593,-0.39302 2.51423,-4.93793 4.17399,-10.09979 z M 674.26974,938.9002 c 3.04313,-1.47315 6.98256,-4.257 8.7543,-6.18632 l 3.22134,-3.50786 -5.37798,3.50579 c -2.95788,1.92818 -8.59276,4.46048 -12.52196,5.62732 -6.74803,2.00395 -7.26944,1.98625 -9.4077,-0.31947 -1.24505,-1.34255 -2.98809,-5.00384 -3.87344,-8.1362 l -1.60973,-5.6952 -3.16493,3.76131 c -4.39297,5.22075 -11.58533,8.87018 -15.50997,7.86982 -2.03712,-0.51924 -5.68853,-4.48513 -10.04267,-10.90761 l -6.84171,-10.09172 -0.8903,5.93694 c -0.48967,3.26532 -1.83881,6.72414 -2.99811,7.68626 -1.81343,1.50502 -2.875,0.90116 -7.60131,-4.32397 -3.02144,-3.34031 -8.70995,-11.88409 -12.64115,-18.98618 -3.9312,-7.10209 -7.6812,-13.24265 -8.33334,-13.64569 -0.65213,-0.40304 -1.20394,3.65261 -1.22624,9.01255 -0.0479,11.51012 -0.17435,11.37682 -9.40545,-9.91424 l -6.2114,-14.32627 -1.68753,6.02728 c -0.92815,3.31501 -2.20523,6.34724 -2.83797,6.73829 -1.50106,0.92771 -1.48601,3.2203 0.0211,3.2203 0.64437,0 1.95462,-1.89042 2.91167,-4.20094 l 1.74008,-4.20095 1.59505,4.60718 c 3.64886,10.5395 12.54094,25.12804 15.31615,25.12804 0.69602,0 1.27911,-3.75 1.29576,-8.33333 l 0.0303,-8.33333 4.32836,8.02827 c 5.57563,10.34168 9.56042,16.10414 15.42415,22.30506 7.01473,7.4181 9.49629,6.73033 12.78374,-3.54305 0.66633,-2.0823 1.59186,-1.2565 5.10847,4.55801 2.36209,3.90557 5.9065,8.28856 7.87646,9.73997 3.16242,2.32999 4.06625,2.43825 7.72021,0.92473 2.27616,-0.94282 6.21437,-4.13944 8.75159,-7.1036 4.59679,-5.37032 4.61311,-5.37651 4.61311,-1.74985 0,2.00175 0.91541,5.40975 2.03424,7.57333 1.75791,3.39943 2.78745,3.93379 7.57904,3.93379 3.04963,0 8.03462,-1.20531 11.07775,-2.67846 z M 464.8172,926.15245 c -4.00783,-20.58791 -2.37773,-55.16803 4.0672,-86.27969 1.70455,-8.22842 2.87488,-15.19397 2.60073,-15.47901 -2.03103,-2.11167 -9.56634,34.63336 -11.3765,55.47612 -1.43978,16.5781 -0.13451,34.10612 3.66669,49.23879 2.93968,11.70291 3.55544,9.95576 1.04188,-2.95621 z m 55.61203,-2.26588 c -2.19328,-6.21404 -4.71667,-16.28313 -5.60753,-22.37576 -3.21299,-21.97374 0.73524,-62.75937 8.80464,-90.95297 1.83982,-6.42812 3.66926,-14.52812 4.06541,-18 1.65381,-14.4939 11.8186,-40.15433 21.62777,-54.59802 10.89405,-16.04115 30.5091,-33.02852 51.51324,-44.61241 11.44885,-6.31409 3.78747,-4.148 -8.79669,2.48708 -14.40072,7.59287 -30.9821,20.62056 -39.92933,31.37175 -11.90134,14.30091 -24.33452,43.57969 -26.01499,61.26249 -0.44132,4.6438 -3.07287,15.6682 -5.84789,24.49867 -7.32686,23.31501 -9.79874,39.02507 -9.85151,62.61126 -0.0327,14.63339 0.60373,22.8622 2.37194,30.66667 2.40635,10.62114 9.91233,30.67987 11.05341,29.53879 0.32962,-0.32962 -1.19519,-5.68352 -3.38847,-11.89755 z m -121.43107,1.21732 c -2.18601,-4.87221 -4.27305,-8.85856 -4.63785,-8.85856 -0.87442,0 2.40639,9.22881 5.20411,14.63899 3.94307,7.62507 3.5226,3.33288 -0.56626,-5.78043 z M 384.32632,906.806 c -5.12933,-9.48394 -10.30856,-27.53916 -13.35616,-46.56067 -1.98798,-12.40792 -2.48226,-14.03114 -2.59073,-8.50798 -0.31204,15.89001 7.30718,45.19747 14.79053,56.89201 5.38688,8.41829 6.09316,7.30462 1.15636,-1.82336 z m 493.21912,-11.62586 c 0.86758,-4.91415 1.82894,-9.73116 2.13635,-10.70447 0.34643,-1.09684 5.66314,2.95856 13.98419,10.66667 14.56486,13.49196 18.5035,16.21435 12.44427,8.60147 -3.69471,-4.64209 -26.30562,-24.83181 -27.80968,-24.83181 -0.39703,0 -0.73215,1.65 -0.74472,3.66666 -0.0126,2.01667 -1.20229,8.16667 -2.64382,13.66667 -3.08479,11.76969 -3.21331,13.49933 -0.76293,10.26814 1.0004,-1.31919 2.52876,-6.41919 3.39634,-11.33333 z m 32.02862,-12.78789 c -2.90075,-19.95613 -11.3343,-41.03185 -22.65046,-56.60427 -6.60116,-9.08401 -5.99774,-5.72117 1.08929,6.07056 8.79496,14.63344 18.33435,44.52213 21.18826,66.38679 l 1.04421,8 0.42891,-6.66667 c 0.2359,-3.66666 -0.2592,-11.40055 -1.10021,-17.18641 z m 31.84999,-17.40018 c -0.52992,-5.54769 -2.29686,-14.13522 -3.92655,-19.08339 -3.62452,-11.00506 -13.53901,-31.13501 -16.57624,-33.65569 -1.40167,-1.16328 -0.65875,1.23682 2.00602,6.48074 5.68538,11.1881 12.70711,32.1658 15.24525,45.54577 1.14006,6.00989 2.07283,11.19621 2.07283,11.52514 0,0.32894 0.48199,0.30019 1.07108,-0.0639 0.5891,-0.36408 0.63752,-5.20099 0.10761,-10.74868 z M 543.00342,850.912 c 0.77896,-5.5 2.33716,-13.78991 3.46266,-18.42203 1.1255,-4.63211 1.72709,-8.74129 1.33688,-9.13151 -2.22607,-2.22607 -9.91596,37.98939 -8.05034,42.10047 0.74201,1.6351 1.06169,1.35764 1.39822,-1.2136 0.23996,-1.83333 1.07362,-7.83333 1.85258,-13.33333 z M 423.84063,803.6747 c 4.25595,-2.51385 11.75169,-8.36385 16.65719,-13 l 8.91909,-8.42936 -0.79883,11.90918 -0.79883,11.90918 3.87974,-2.80547 c 5.2524,-3.79806 16.46122,-15.5428 22.59904,-23.67956 3.74042,-4.95859 4.82253,-5.81263 4.22352,-3.33333 -1.75899,7.28036 -3.67216,21.71511 -2.97102,22.41624 1.21525,1.21526 11.13456,-9.14824 16.9888,-17.74958 2.99473,-4.4 6.9319,-9.78896 8.74928,-11.97547 l 3.30431,-3.97548 -0.93264,4.24631 c -0.60123,2.73738 -0.2292,5.80838 1.04695,8.64215 1.08878,2.4177 2.36494,7.23184 2.83591,10.69808 1.1562,8.50928 3.00038,9.13393 4.10443,1.39022 1.53497,-10.76619 10.34522,-35.27821 16.6271,-46.26023 13.59687,-23.77009 33.42767,-39.04329 70.63738,-54.4032 8.03606,-3.31723 42.8502,-14.36237 45.27,-14.36237 1.90784,0 11.03631,-4.13813 10.44122,-4.73322 -1.02575,-1.02575 -37.34747,5.84328 -49.71122,9.4012 -49.43072,14.22472 -77.771,36.25375 -90.05311,69.99868 -2.00183,5.5 -4.40375,13.6 -5.33761,18 -2.37348,11.18298 -3.68201,11.795 -2.39699,1.12111 0.59216,-4.9188 0.85057,-9.16936 0.57424,-9.4457 -1.05931,-1.05931 -10.82033,10.20973 -19.91459,22.99126 -5.21778,7.33333 -9.65496,12.43333 -9.8604,11.33333 -0.20544,-1.1 1.04957,-7.85 2.7889,-15 2.43651,-10.01588 2.76057,-13 1.41176,-13 -0.96287,0 -6.42951,6.08539 -12.1481,13.52308 -5.71858,7.4377 -12.67052,15.9877 -15.44874,19 l -5.05131,5.47692 0.80054,-6.66667 c 0.44029,-3.66666 1.37936,-9.62069 2.08681,-13.23116 0.75227,-3.83919 0.79325,-7.05753 0.0987,-7.75207 -0.69455,-0.69454 -6.73828,4.24495 -14.55765,11.89783 -7.35354,7.19697 -15.23511,14.16932 -17.51459,15.49412 l -4.14453,2.40871 -0.0512,-13.74205 -0.0512,-13.74204 -6.00409,6.66666 c -3.30225,3.66667 -7.87822,9.31869 -10.16881,12.56005 -5.30895,7.51254 -5.53029,6.95359 -7.61353,-19.22671 -1.74551,-21.93596 -2.34327,-26.01711 -3.80318,-25.96564 -0.53603,0.0189 -4.13247,4.3689 -7.99208,9.66667 -3.85962,5.29776 -7.93551,10.8323 -9.05755,12.29897 -3.34777,4.37604 -1.86565,-52.08106 1.9219,-73.20912 3.1307,-17.46396 2.93384,-22.21474 -0.32654,-7.87997 -4.42702,19.46412 -6.1764,34.90717 -6.18163,54.56966 -0.006,22.78527 0.99017,32.84622 3.18251,32.14011 0.81334,-0.26195 5.07879,-5.66904 9.47879,-12.01575 l 8,-11.53946 0.31239,5.63393 c 0.84578,15.25339 3.49756,35.45647 5.18986,39.53997 l 1.89504,4.5727 5.46241,-5.23937 c 3.00432,-2.88165 7.18993,-7.57939 9.30135,-10.43942 l 3.83895,-5.20005 v 5.34729 c 0,5.73632 1.42679,17.71948 2.10979,17.71948 0.2277,0 3.89615,-2.05679 8.15211,-4.57064 z m 566.59723,-28.09603 c 3.44745,-11.20997 3.71095,-13.77121 4.00215,-38.90328 0.2633,-22.73269 0,-27.16458 -1.71934,-28.58886 -1.81044,-1.50253 -1.92972,0.4779 -1.09833,18.23661 1.1562,24.69709 -1.15996,45.52681 -6.81132,61.25553 -0.67634,1.88239 -0.53249,2.27453 0.48915,1.33333 0.796,-0.73333 3.10796,-6.73333 5.13769,-13.33333 z m -432.75131,-24.9565 c 8.52376,-11.57937 15.03931,-21.74483 12.20591,-19.0435 -3.67158,3.50046 -19.51297,24.56665 -21.76753,28.94688 -2.78527,5.41133 -3.3422,8.56384 -0.80113,4.53486 0.87354,-1.38504 5.53677,-7.88225 10.36275,-14.43824 z m 349.33632,-2.25636 c -9.62103,-24.68757 -18.30544,-37.44669 -34.7775,-51.09509 -9.02205,-7.47547 -26.58406,-18.88577 -27.56223,-17.90759 -0.30968,0.30968 4.71514,4.67323 11.16626,9.69679 24.02826,18.71108 37.11912,35.01776 49.20743,61.29541 3.55649,7.73112 6.64818,13.51106 6.87043,12.84431 0.22225,-0.66675 -1.98472,-7.34198 -4.90439,-14.83383 z M 353.73373,707.20669 c 2.77287,-6.07125 6.90052,-13.79308 9.17256,-17.15961 2.27205,-3.36653 3.87748,-6.37448 3.56763,-6.68433 -2.38584,-2.38583 -18.78933,27.59812 -20.25701,37.0278 -0.81286,5.22253 -1.19927,5.90026 7.51682,-13.18386 z m 549.03016,-1.09717 c -4.57608,-7.63928 -16.83004,-19.71225 -25.24867,-24.87574 -2.77275,-1.70064 0.4819,2.18068 8.18483,9.76079 7.03341,6.92126 14.47122,15.1463 16.52845,18.27788 5.42941,8.26476 5.85934,5.72486 0.53539,-3.16293 z m 136.14821,318.47398 c -9.1667,-5.5917 -28.3494,-16.2054 -42.62829,-23.5858 l -25.96163,-13.41906 -5.03168,-8.958 -5.03169,-8.95807 11.25972,-14.98127 c 6.19285,-8.23969 14.99563,-21.60857 19.56174,-29.70862 4.56614,-8.10004 14.29213,-24.92735 21.61323,-37.39402 27.6022,-47.00172 36.2711,-72.71084 39.6826,-117.68579 3.4588,-45.59717 -6.5688,-75.7582 -46.323,-139.33166 -5.3942,-8.62628 -9.80779,-16.21124 -9.80779,-16.85546 0,-0.64422 1.4,-1.52269 3.1112,-1.95215 1.71109,-0.42946 5.94189,-3.2726 9.40169,-6.31807 14.5111,-12.77313 22.107,-39.18872 29.4813,-102.52351 l 2.0958,-18 6.1283,-5.25184 c 8.0786,-6.9232 9.7818,-11.42103 9.7818,-25.83202 0,-14.18752 -1.1289,-15.73483 -12.8218,-17.57449 -9.6047,-1.51111 -53.12599,-4.86998 -78.66113,-6.07087 l -18.81621,-0.88491 -0.84842,-9.52627 C 941.3011,377.14079 921.38762,332.42898 887.1133,289.5787 859.219,254.70483 819.34783,219.58101 784.24537,198.959 c -22.01555,-12.93371 -55.62497,-27.68025 -68.7147,-30.14939 -2.90691,-0.54834 -4.61984,-1.22143 -3.80652,-1.49576 2.71353,-0.91524 66.27155,8.95915 84.52122,13.13125 61.75009,14.11682 114.35696,35.79373 164.91133,67.95252 97.3665,61.93704 174.3819,159.74108 212.2315,269.51898 15.7723,45.74547 25.9126,102.87019 27.7502,156.32874 0.8509,24.75168 0.052,37.0082 -5.0385,77.33333 -12.053,95.47485 -56.4593,191.52467 -124.9818,270.33333 -6.2168,7.15 -12.2564,12.9636 -13.4213,12.9191 -1.1649,-0.044 -9.6181,-4.6559 -18.7847,-10.2476 z m -750.08807,1.3278 c -12.18156,-14.2292 -43.24529,-56.00394 -43.24529,-58.15657 0,-0.46351 1.05,-0.84498 2.33333,-0.84772 1.28333,-0.003 4.28453,-1.19465 6.66932,-2.64868 l 4.33598,-2.6437 13.47848,26.98201 c 7.41317,14.84006 15.56361,30.73196 18.11211,35.31536 2.54849,4.5833 4.43198,8.333 4.18553,8.3326 -0.24645,-3e-4 -2.8877,-2.8503 -5.86946,-6.3333 z m -50.86919,-69.99931 c -6.79196,-7.39488 -25.49343,-41.86274 -37.6862,-69.45778 -19.97576,-45.20972 -33.63391,-96.11978 -40.29805,-150.20887 -2.7013,-21.92494 -2.24348,-92.38331 0.7364,-113.33333 10.59666,-74.49955 30.1438,-133.21154 63.92308,-191.99999 31.61604,-55.02361 74.69767,-106.5421 120.61533,-144.23591 5.31666,-4.36446 9.66666,-7.5412 9.66666,-7.05944 0,0.48177 -3.3618,4.57031 -7.47066,9.08565 -9.56941,10.51608 -27.64102,34.67551 -35.56288,47.54304 -15.04879,24.44384 -28.21467,59.73569 -33.2182,89.04319 -5.25219,30.764 -3.0272,96.26293 4.2204,124.23931 1.41759,5.47204 2.36375,10.16286 2.10258,10.42404 -0.26118,0.26118 -3.64295,-0.46595 -7.51505,-1.61584 -32.41704,-9.62683 -69.63616,18.43424 -80.6073,60.77324 -8.4595,32.64628 1.06427,77.3862 22.55932,105.97718 7.51294,9.9931 21.38524,23.14525 29.31286,27.79115 5.55472,3.25528 5.93297,3.85827 6.80662,10.85071 1.12311,8.98906 4.92533,20.38239 9.28434,27.82048 3.71756,6.34354 13.17676,15.46733 19.34052,18.65473 5.60826,2.90015 15.6452,3.98889 21.60433,2.34349 2.64767,-0.73106 5.39891,-0.94801 6.11386,-0.48212 0.71495,0.4659 1.66532,5.34708 2.11193,10.84708 0.44662,5.5 1.20446,13.02478 1.68411,16.72172 l 0.87209,6.72173 -5.48421,3.62928 c -10.4961,6.94599 -18.73911,24.21405 -18.87498,39.54073 -0.0504,5.68305 -1.04234,7.31695 -16.22197,26.71987 -9.12106,11.65873 -17.82836,24.31555 -19.97693,29.0382 -2.59308,5.69971 -5.18188,9.20884 -8.11137,10.99502 -5.47465,3.33802 -6.56094,3.29791 -9.92663,-0.36656 z M 731.57871,849.47095 c -15.59243,-1.05425 -37.43334,-5.13421 -48.99346,-9.15215 l -7.00654,-2.43525 6.66667,-2.95031 c 11.08576,-4.90596 18.136,-6.7108 29.61061,-7.58021 14.68652,-1.11277 25.57223,1.24893 33.44075,7.2551 l 6.00642,4.5848 -2.86223,-4.63117 c -1.57422,-2.54715 -2.86222,-4.98216 -2.86222,-5.41113 0,-1.64416 10.39708,-3.55709 19.33333,-3.55709 12.26219,0 19.02811,1.96599 24.38606,7.08591 4.10811,3.9256 4.23485,4.30559 2,5.99599 -3.99404,3.02104 -15.4144,7.74568 -22.42478,9.27722 -9.93526,2.17052 -20.99121,2.62062 -37.29461,1.51829 z m -21.33333,-36.70794 c -47.1981,-4.98642 -83.40846,-15.82115 -95.55738,-28.59232 -4.31765,-4.5388 -5.10928,-6.26981 -5.10928,-11.17218 0,-7.81283 2.13454,-8.33502 13.56452,-3.31837 14.12455,6.19931 33.84431,13.11831 45.76881,16.05874 15.77789,3.89063 43.5742,4.8306 58.01501,1.96187 13.36666,-2.65535 27.69819,-9.13619 35.80104,-16.18954 l 5.81607,-5.06276 22.01641,0.33725 c 12.10903,0.18549 22.79988,0.6379 23.75744,1.00535 2.69061,1.03248 4.71868,8.41592 3.76209,13.69632 -2.88839,15.94395 -15.4081,23.79878 -45.83474,28.75661 -12.46864,2.03168 -51.57406,3.62051 -61.99999,2.51903 z M 290.2454,797.82184 c -11.23382,-7.22318 -18.93266,-21.96498 -20.2253,-38.72753 l -0.84162,-10.91389 -9.10355,-4.78378 c -16.90859,-8.88521 -33.77304,-28.72369 -42.67297,-50.1983 -9.03055,-21.78978 -12.4722,-48.13085 -8.66079,-66.28633 4.66164,-22.20548 19.97986,-43.62382 38.03718,-53.18458 7.26814,-3.84824 9.8374,-4.5097 17.33333,-4.46252 16.43576,0.10344 31.99899,7.94436 46.18769,23.26986 8.40319,9.07645 12.37031,16.25051 16.81662,30.41087 2.86517,9.12482 3.12603,12.27437 3.08944,37.2997 -0.0279,19.11604 -0.76356,32.34388 -2.4469,44 -1.32381,9.16667 -4.32209,32.81547 -6.66283,52.5529 l -4.2559,35.88624 -4.99087,3.31208 c -6.73221,4.46768 -16.24407,5.27133 -21.60353,1.82528 z m 11.76946,-71.55959 c -5.74064,-11.87411 -6.34762,-14.06615 -6.85949,-24.77219 -0.48304,-10.10318 -0.15046,-12.59458 2.37868,-17.81907 3.23055,-6.67343 7.42098,-10.20447 15.04468,-12.67731 4.45992,-1.44663 5,-2.10425 5,-6.08819 0,-14.0068 -29.98729,-52.26307 -47.6803,-60.82811 -16.94297,-8.20195 -36.78085,0.69077 -44.29862,19.85774 -3.34874,8.53779 -5.323,31.55392 -3.05434,35.6078 0.96341,1.7215 1.49117,-0.643 2.01399,-9.02309 1.4183,-22.73369 13.85786,-39.60782 29.19876,-39.60782 7.59269,0 14.75134,3.70104 25.34117,13.10144 l 8.83771,7.84507 -6.80309,1.57034 c -13.65593,3.15216 -21.71931,10.40404 -28.28677,25.43996 -1.98166,4.53694 -2.60184,8.98632 -2.60184,18.66666 0,11.59935 0.3724,13.46711 4.26207,21.37653 2.85748,5.81051 7.22647,11.52282 13.2572,17.33333 9.52845,9.18053 9.57104,8.95572 0.50518,-2.66667 -10.78955,-13.83213 -14.40133,-27.22673 -11.31679,-41.96925 3.48199,-16.64215 12.09059,-26.42798 24.77858,-28.16706 7.98744,-1.0948 12.30242,1.22164 21.01974,11.28416 l 6.87648,7.93763 -4.66826,2.88515 c -7.55985,4.67225 -13.86854,13.13012 -16.74843,22.45411 -2.273,7.35913 -2.44436,9.73955 -1.24263,17.26209 1.82606,11.4307 6.67844,21.43343 14.1037,29.07345 3.30464,3.40023 6.28566,5.905 6.62449,5.56617 0.33883,-0.33883 -2.21801,-6.47812 -5.68187,-13.64287 z m 549.95277,16.89846 c -9.88334,-8.55484 -14.2171,-13.60905 -23.84373,-27.80753 -3.56451,-5.25736 -9.49478,-13.18034 -13.17837,-17.60663 l -6.69744,-8.0478 6.18301,-4.72108 6.18301,-4.72108 14.18944,14.32771 c 7.8042,7.88024 18.03253,19.12771 22.72964,24.99437 4.69711,5.86667 11.77921,14.41619 15.73801,18.99894 4.72277,5.46714 6.58625,8.52109 5.41932,8.88139 -3.83318,1.18351 -14.3855,3.45276 -16.03558,3.44841 -0.9586,-0.003 -5.76789,-3.48854 -10.68731,-7.7467 z m -16.76532,-78.58203 c 5.81115,-11.33881 6.90485,-15.15286 7.44862,-25.9755 l 0.58495,-11.64216 3.89198,2.77134 c 8.13723,5.79422 11.86437,16.54891 8.51405,24.56736 -1.50056,3.59136 -3.60579,5.45336 -9.01062,7.96958 -6.86585,3.19639 -12.46322,4.32742 -11.42898,2.30938 z M 522.91205,638.89812 c -18.81664,-1.38806 -38.57213,-4.4809 -52.51294,-8.22121 -20.23426,-5.42885 -25.19629,-14.35543 -32.77258,-58.95707 -4.69143,-27.61847 -7.27191,-53.41142 -6.35512,-63.52198 0.93384,-10.29859 5.02382,-17.75485 11.97174,-21.82516 10.13571,-5.93782 40.43938,-12.30001 84.33557,-17.70609 55.75442,-6.86648 153.11564,1.23985 165.66949,13.7937 l 3.39359,3.39358 -0.80689,18.8624 c -1.51508,35.41756 -10.90647,73.51726 -23.71674,96.21581 -6.46384,11.45329 -13.83683,18.84169 -23.31777,23.36653 -22.22287,10.606 -83.57358,17.72095 -125.88835,14.59949 z m 59.4685,-34.79147 c 13.41675,-4.14402 21.82595,-8.19959 28.32432,-13.66022 6.27866,-5.27601 6.32923,-6.56037 0.0832,-2.11279 -5.13329,3.65522 -27.52968,12.73274 -39.20934,15.89201 -8.82692,2.38762 -9.03349,2.52899 -3.80711,2.60548 3.03942,0.0445 9.61344,-1.18153 14.60894,-2.72448 z m -74.30726,-13.82963 c -5.59226,-2.05769 -14.0549,-7.29695 -22.16123,-13.72013 -7.89459,-6.2554 -7.10655,-3.18657 1.06932,4.16425 6.5474,5.88667 17.85859,11.4104 23.26401,11.36078 1.61834,-0.0148 0.76444,-0.7244 -2.1721,-1.8049 z m 77.59676,-8.17654 c 7.99155,-2.36685 15.15641,-5.7185 14.222,-6.6529 -0.33063,-0.33063 -6.43605,0.33778 -13.56761,1.48536 -32.12417,5.1693 -68.62922,-7.02964 -80.21956,-26.80707 -4.99374,-8.52117 -3.90683,-10.85177 8.29981,-17.79682 8.30363,-4.72442 28.36248,-12.62595 29.43241,-11.59394 0.1421,0.13707 -0.35722,2.93295 -1.1096,6.21306 -3.04301,13.26634 3.87281,27.57893 16.32423,33.78373 25.39295,12.65384 52.04169,-13.24067 39.375,-38.26058 l -3.15199,-6.22597 h 10.55154 c 13.08881,0 17.69672,2.12419 21.16126,9.75509 3.23475,7.12476 3.24807,14.56338 0.0445,24.85645 -3.04653,9.7885 -0.8071,8.96428 4.48202,-1.64961 4.66116,-9.35371 4.70284,-20.00032 0.10483,-26.77587 l -3.29315,-4.85272 h 7.95981 c 4.3779,0 7.95982,-0.54401 7.95982,-1.20891 0,-2.15996 -19.3513,-9.33239 -29.4726,-10.92382 -13.75803,-2.16325 -46.20184,-0.67978 -63.86073,2.91999 -18.66531,3.80493 -29.90688,8.01334 -45.96161,17.20623 -19.1341,10.95614 -23.73987,12.04226 -35.87202,8.45924 -1.52235,-0.4496 -2.16858,-0.20167 -1.65218,0.63387 1.19957,1.94095 16.16779,6.65026 24.48582,7.70373 5.30625,0.67203 7,1.42706 7,3.1204 0,3.54369 7.00122,13.5699 13.86968,19.86231 16.47645,15.09458 51.38746,23.11666 72.88831,16.74875 z m -7.71811,-45.97084 c -3.62338,-1.34914 -5.2263,-6.95144 -3.23769,-11.31594 2.15977,-4.7402 10.28096,-4.64114 12.46488,0.15204 3.1272,6.86345 -2.49808,13.66944 -9.22719,11.1639 z m 294.29343,76.63935 c -8.25703,-0.9353 -20.47712,-3.27479 -27.669,-5.29713 -6.77079,-1.90392 -7.15572,-2.2736 -11.64064,-11.17946 -7.07314,-14.04539 -17.05883,-30.58111 -32.46696,-53.76341 -8.32635,-12.52742 -13.49797,-21.52815 -12.77371,-22.23147 1.73149,-1.68141 21.88364,-12.41307 21.88364,-11.65373 0,0.34654 -0.8963,2.34866 -1.99178,4.44915 -2.54532,4.88043 -2.53144,10.23985 0.049,18.9292 3.78587,12.74841 14.79585,21.46588 27.18846,21.52726 22.57049,0.11179 35.10406,-29.22095 19.25706,-45.06795 -2.52541,-2.52541 -4.42165,-4.7548 -4.21387,-4.9542 1.08809,-1.04423 22.65017,2.12946 27.10031,3.98885 10.44717,4.36511 15.20855,12.30199 15.23516,25.39592 0.0398,19.58238 -17.42284,37.11382 -38.19131,38.34179 -3.02203,0.17868 -5.17365,0.85043 -4.78137,1.49277 0.39228,0.64235 4.46463,0.86678 9.04966,0.49874 16.12799,-1.2946 30.81,-10.97497 37.59228,-24.78591 3.13422,-6.3823 3.70638,-9.22822 3.70638,-18.43568 0,-9.12116 -0.47522,-11.53107 -2.92809,-14.84875 l -2.92809,-3.96045 10.26142,-1.24261 c 7.18398,-0.86994 9.46168,-1.55042 7.59476,-2.269 -1.46667,-0.56453 -6.56667,-2.7117 -11.33333,-4.7715 -22.86249,-9.87947 -43.70075,-12.61672 -71.61405,-9.407 -14.02532,1.61275 -27.59717,6.35843 -38.50139,13.46282 -4.74687,3.0927 -8.94056,5.31322 -9.31931,4.93447 -1.26191,-1.26191 1.99384,-22.26742 4.07517,-26.29226 3.21678,-6.22057 8.50192,-10.45884 20.02625,-16.05952 11.19073,-5.43855 26.83981,-10.40437 43.87956,-13.92403 16.76859,-3.46365 53.80617,-7.38808 69.7871,-7.39451 l 15,-0.006 -0.005,12.33333 c -0.003,6.78333 -0.89588,21.93333 -1.9842,33.66666 -1.08832,11.73334 -1.98587,26.28334 -1.99456,32.33334 -0.0148,10.29057 -0.19689,10.99999 -2.82372,10.99999 -2.30523,0 -1.16101,1.84997 6.39127,10.33334 5.05957,5.68333 12.21522,14.23333 15.90145,19 9.11664,11.78872 24.82743,36.13221 23.91066,37.04898 -0.9694,0.9694 -18.59476,3.79481 -38.72879,6.20836 -16.47209,1.97459 -53.72747,3.53668 -61.99999,2.59963 z m 16.49388,-23.73377 c 9.03152,-2.72433 20.17683,-10.45987 24.15879,-16.7677 1.84103,-2.91638 3.34732,-5.67464 3.34732,-6.12946 0,-0.45483 -3.18535,2.08325 -7.07857,5.64017 -11.94582,10.91393 -28.25591,17.59749 -43.58809,17.86157 -5.59175,0.0963 -6.70003,0.41933 -4.66667,1.36015 3.53051,1.63354 19.67805,0.49345 27.82722,-1.96473 z m 89.97631,-0.50381 c -3.40805,-5.65733 -11.95885,-18.4991 -19.00177,-28.53725 -14.17436,-20.20249 -16.34356,-24.4211 -14.00573,-27.23801 0.83601,-1.00733 9.6989,-6.74759 19.69532,-12.75614 9.99642,-6.00854 25.66652,-15.61138 34.82252,-21.33964 16.4935,-10.3189 21.3528,-12.24309 21.3528,-8.45523 0,4.20352 -6.8192,55.30742 -8.7689,65.71509 -1.7591,9.39013 -5.5711,22.31417 -9.2595,31.3928 -1.4173,3.48847 -12.54267,11.60705 -15.83001,11.55171 -2.0561,-0.0346 -4.46793,-2.8023 -9.00473,-10.33333 z m -654.71217,0.71394 c -1.76479,-2.8131 -1.51341,-3.33227 4.03479,-8.33333 5.34603,-4.81883 5.81786,-5.01177 4.89094,-2 -1.19264,3.87516 -5.84427,13.33333 -6.55747,13.33333 -0.26742,0 -1.33314,-1.35 -2.36826,-3 z m -26.26352,-29.33333 c -2.19416,-6.89486 -5.3086,-25.7041 -7.00955,-42.33333 -2.21955,-21.69921 -2.23057,-74.18989 -0.0182,-86.66667 10.61835,-59.88271 35.19845,-104.713 84.08266,-153.35371 33.76571,-33.59753 65.8134,-55.48796 115.48729,-78.88455 25.81756,-12.16016 57.10395,-21.75512 91.29664,-27.99899 14.46404,-2.64126 20.9838,-3.03923 49.33333,-3.01132 31.03901,0.0306 33.46045,0.21822 48.59791,3.76661 67.68788,15.86678 117.0098,43.58997 167.40587,94.09658 39.78357,39.87084 59.75433,68.32443 74.18999,105.7031 4.86774,12.60418 11.66983,38.79073 13.14687,50.6125 l 0.91346,7.31115 -27.79372,0.83287 c -43.18053,1.29396 -73.11297,6.24669 -100.79332,16.67761 -17.4013,6.55742 -27.73516,13.24206 -34.88767,22.56771 -4.21629,5.49733 -6.04822,6.93224 -8.11273,6.35454 -8.21379,-2.29841 -21.63691,-2.27583 -34.35558,0.0578 -10.42512,1.91282 -13.59,2.09801 -14.01596,0.82014 -1.38387,-4.15161 -7.83208,-9.81339 -15.44478,-13.56111 -20.11144,-9.90083 -80.25069,-16.91096 -133.517,-15.56341 -35.20388,0.89061 -55.11321,2.95494 -100,10.36868 -41.22147,6.80835 -59.57222,10.97568 -66.68402,15.14348 -7.88412,4.62039 -27.4818,19.47903 -38.31597,29.05052 -4.95,4.37309 -9,7.42476 -9,6.78148 0,-0.64328 2.74338,-5.95507 6.09639,-11.80398 8.75307,-15.26859 8.76918,-15.30104 7.59582,-15.30104 -1.86934,0 -10.15248,13.72188 -12.97516,21.4947 -2.25914,6.221 -5.55373,10.42634 -19.38603,24.74512 -9.1654,9.48773 -19.66435,21.55537 -23.33102,26.81697 -7.40336,10.62369 -10.40135,11.88865 -12.50553,5.27654 z m 26.22969,-59 c 5.44272,-11.73333 12.59808,-26.3166 15.90079,-32.40727 3.30272,-6.09067 5.74108,-11.33781 5.41858,-11.66031 -0.66818,-0.66818 -14.96518,23.15002 -20.29363,33.80835 -5.20429,10.40993 -12.32536,28.50646 -13.26771,33.71672 -0.96403,5.33014 -2.29248,7.87565 12.24197,-23.45749 z m -16.47217,-16.8809 c 4.80879,-13.67434 20.22585,-46.76831 24.74197,-53.11062 1.56986,-2.20466 2.34069,-4.00848 1.71295,-4.00848 -1.80783,0 -11.44043,15.44031 -18.76461,30.07822 -6.31771,12.62639 -11.06331,26.10223 -12.85062,36.49123 -1.2162,7.06931 0.37696,4.15168 5.16031,-9.45035 z m 462.81687,-19.4992 c 1.29183,-7.62806 10.93173,-39.36881 15.4164,-50.76068 6.22757,-15.81915 11.49942,-23.48593 22.49954,-32.72078 15.22242,-12.77955 22.46633,-17.57387 36.8426,-24.38398 11.1871,-5.29938 14.67466,-6.32099 23.27882,-6.81908 15.46602,-0.89531 23.7011,1.99198 33.42998,11.72086 8.94747,8.94748 9.5549,8.14865 5.2501,-6.90443 -6.33162,-22.14052 -21.66355,-41.75872 -39.49988,-50.54265 -8.54606,-4.20872 -10.1613,-4.54248 -21.98317,-4.54248 -12.03759,0 -13.32159,0.27933 -22.69799,4.93781 -12.51234,6.21651 -21.94363,14.48091 -29.15264,25.54572 -7.99993,12.27876 -10.98704,20.95959 -11.76256,34.18313 -0.73102,12.46479 1.00028,21.35704 4.92166,25.27841 2.40589,2.40589 2.38321,2.65907 -0.85969,9.59634 -9.06255,19.38676 -14.32957,36.681 -17.09421,56.12872 -2.3302,16.39167 -2.31262,16.01923 -0.70949,15.02844 0.70493,-0.43567 1.65917,-3.02108 2.12053,-5.74535 z M 300.2454,438.27245 c 0,-1.4911 8.5027,-23.95831 12.49908,-33.02709 3.54061,-8.03452 1.25284,-5.75316 -3.3252,3.31587 -5.08498,10.0733 -10.06504,23.08323 -11.7575,30.71537 -1.12097,5.05504 -1.05228,5.36887 0.66697,3.04725 1.05416,-1.42349 1.91665,-3.24662 1.91665,-4.0514 z m 194.1122,-28.22689 c 30.41593,-15.79667 57.67814,-20.81544 86.04646,-15.84051 6.14606,1.07783 19.87466,4.7173 30.50799,8.08772 20.0979,6.37038 24.77006,6.74896 29.57917,2.39677 5.09263,-4.60876 2.41653,-31.66424 -4.18914,-42.35244 -3.84286,-6.21787 -14.78355,-15.9042 -21.8005,-19.30104 -16.25041,-7.86669 -48.30898,-10.75667 -66.7304,-6.01553 -18.32206,4.71557 -39.80704,17.60133 -51.64392,30.97378 -13.49324,15.2437 -32.61016,49.83627 -34.2308,61.94153 l -0.75546,5.64285 9.99774,-9.33333 c 6.93176,-6.47111 14.05221,-11.43905 23.21886,-16.1998 z m 161.99344,-7.66742 c 0.87109,-3.45942 1.27026,-9.70452 0.88704,-13.87799 -0.68776,-7.49009 -4.46157,-17.58812 -6.57298,-17.58812 -1.45758,0 -1.36888,0.98079 0.38509,4.25812 3.54717,6.62795 3.71903,24.2771 0.35453,36.40854 -0.7095,2.55824 -0.65617,2.55328 1.31147,-0.12201 1.12807,-1.53378 2.76375,-5.61912 3.63485,-9.07854 z M 493.06076,340.35328 c 14.05917,-9.2956 31.88275,-17.84529 46.51796,-22.31393 11.1437,-3.40256 13.71259,-3.66811 36,-3.72149 27.02393,-0.0647 36.693,1.7535 55.91956,10.51532 11.95854,5.44968 12.15755,4.09124 0.35515,-2.42423 -47.94638,-26.46866 -113.16286,-13.75591 -158.60804,30.9177 -11.79316,11.59294 -11.66974,13.76022 0.14871,2.61129 5.03179,-4.74673 13.88178,-11.75983 19.66666,-15.58466 z M 801.669,297.0115 c 6.08174,-3.61197 15.14484,-8.15739 20.14022,-10.10096 11.76541,-4.5776 12.63312,-5.60786 2.78889,-3.31136 -20.90499,4.87681 -37.37532,15.12557 -45.91985,28.57389 -5.75737,9.0616 -4.54216,8.99843 4.0834,-0.21226 4.72357,-5.04399 12.25328,-10.99745 18.90734,-14.94931 z m 36.20638,226.49158 c -5.78416,-4.05138 -2.18328,-13.92439 5.07849,-13.92439 6.73642,0 9.42271,9.17652 3.97712,13.58609 -3.64661,2.95285 -5.23794,3.0123 -9.05561,0.3383 z M 941.5787,505.76067 c 0,-0.63324 0.57603,-4.18874 1.28006,-7.90112 0.70404,-3.71237 1.35793,-16.39427 1.45308,-28.18198 l 0.173,-21.43221 h 14.85414 c 20.4993,0 58.54942,2.72181 60.57312,4.33293 2.647,2.10745 1.9387,6.8527 -1.3334,8.9323 -11.8694,7.54377 -75.66813,45.40143 -76.5117,45.40143 -0.26857,0 -0.4883,-0.51811 -0.4883,-1.15135 z" />
    </g>
  </g>
</svg>
